<?xml version="1.0" encoding="utf-8"?>
<!-- Generator: Adobe Illustrator 19.2.1, SVG Export Plug-In . SVG Version: 6.00 Build 0)  -->
<svg version="1.1" xmlns="http://www.w3.org/2000/svg" xmlns:xlink="http://www.w3.org/1999/xlink" x="0px" y="0px"
	 viewBox="0 0 681 435" style="enable-background:new 0 0 681 435;" xml:space="preserve">
<style type="text/css">
	.st0{display:none;}
	.st1{display:inline;fill:#E6E7E8;stroke:#231F20;stroke-linecap:round;stroke-miterlimit:10;}
	.st2{fill:none;}
	.st3{fill:#F2F3F4;}
	.st4{font-family:'HoeflerText-Black';}
	.st5{font-size:35px;}
	.st6{fill:#FFFFFF;}
	.st7{fill:none;stroke:#FFFFFF;stroke-linecap:round;stroke-miterlimit:10;}
</style>
<g id="Layer_4" class="st0">
	<rect x="-18.2" y="-96.8" class="st1" width="761.3" height="554.6"/>
</g>
<g id="Layer_3">
	<rect x="36" y="390" class="st2" width="645" height="64"/>
	<text transform="matrix(1 0 0 1 36 415.3398)" class="st3 st4 st5">web development &amp; data visualization</text>
	<rect x="36.4" y="405" class="st2" width="187.6" height="22"/>
</g>
<g id="Layer_2">
	<g>
		<g>
			<path class="st6" d="M210.4,174.8c-24.1,11.8-35.3,41.4-44,65c-0.3,0.8,0.7,1.2,1.3,0.7c5.7-4.9,11.3-9.8,17-14.7
				c-0.4-0.2-0.8-0.5-1.3-0.7c-1,5.3-0.2,10.1,2.4,14.8c0.3,0.5,1,0.5,1.3,0c4.4-9.2,8.8-18.4,13.2-27.6c-0.5-0.1-0.9-0.1-1.4-0.2
				c2.5,8.2,3.7,16.5,3.7,25.1c0,0.5,0.5,0.8,0.9,0.7c3.1-0.4,4.1-3,4.6-5.8c0.5-2.9,0.9-4.7,2.9-6.9c0.9-1,2-1.8,2.8-2.9
				c1.1-1.5,1.6-2.9,2-4.8c1.1-6.4,0.4-13.6,0.5-20.1c0.1-7.5,0.2-14.9,0.4-22.4c0-1-1.5-1-1.5,0c-0.1,7.8-0.2,15.6-0.4,23.3
				c-0.1,3.9-0.1,7.8-0.2,11.7c-0.1,5.4,0,9.5-4.1,13.6c-1.4,1.4-2.6,2.7-3.2,4.6c-0.4,1.2-0.2,2.5-0.6,3.6c0.1,1.6-0.7,2.7-2.5,3.4
				c0-0.9,0-1.8-0.1-2.7c-0.3-7.1-1.6-14.1-3.7-20.9c-0.2-0.6-1.1-0.8-1.4-0.2c-4.4,9.2-8.8,18.4-13.2,27.6c0.4,0,0.9,0,1.3,0
				c-2.4-4.3-3.2-8.8-2.3-13.7c0.1-0.7-0.7-1.2-1.3-0.7c-5.7,4.9-11.3,9.8-17,14.7c0.4,0.2,0.8,0.5,1.3,0.7
				c8.5-23.2,19.7-52.5,43.3-64.1C212,175.6,211.2,174.3,210.4,174.8L210.4,174.8z"/>
		</g>
	</g>
	<g>
		<g>
			<path class="st6" d="M168.9,245.4c-2,3.5-4.1,6.9-6.1,10.4c-0.2,0.3-0.1,0.8,0.3,1c2.4,1.2,4.8,1.4,7.3,0.5
				c0.6-0.2,0.7-0.8,0.3-1.3c-1.9-2.5,2.4-4.8,3.9-6c1.2-1,2-2,2.3-3.5c0.1-0.5-0.3-1.1-0.9-0.9c-2.3,0.7-4.7,1.4-7,2.1
				c-0.9,0.3-0.5,1.7,0.4,1.4c2.3-0.7,4.7-1.4,7-2.1c-0.3-0.3-0.6-0.6-0.9-0.9c-0.7,3.8-9.6,6.1-5.8,11c0.1-0.4,0.2-0.8,0.3-1.3
				c-2.1,0.8-4.1,0.7-6.2-0.3c0.1,0.3,0.2,0.7,0.3,1c2-3.5,4.1-6.9,6.1-10.4C170.7,245.3,169.4,244.5,168.9,245.4L168.9,245.4z"/>
		</g>
	</g>
	<g>
		<g>
			<path class="st6" d="M189.8,248.3c0.7,3.9,1.8,7.7,3.6,11.2c0.9,1.7,2,4.2,4.2,2.7c2.1-1.4,1.2-3.8,0-5.5c-2.4-3.3-5.3-6.3-8-9.3
				c-0.6-0.7-1.7,0.3-1.1,1.1c1.4,1.7,2.9,3.4,4.3,5.1c0.8,0.9,1.6,1.8,2.3,2.7c0.2,0.3,0.4,0.5,0.7,0.8c1.3,1,1.2,2.1-0.3,3.4
				c-0.4-0.2-1.2-2.2-1.3-2.6c-0.5-1.1-1-2.2-1.4-3.4c-0.8-2.1-1.3-4.3-1.6-6.6C191.1,246.9,189.6,247.3,189.8,248.3L189.8,248.3z"
				/>
		</g>
	</g>
	<g>
		<g>
			<path class="st6" d="M492.7,222.1c1.9,3.4,0.7,9.1,4.6,11.4c2.5,1.5,3.5,0.2,5.2-1.7c-0.4-0.1-0.8-0.2-1.3-0.3
				c2.3,5.5,5.7,9.8,10.5,13.3c0.2,0.1,0.5,0.1,0.8,0c1.8-1.1,2.2-2.6,2-4.7c-0.1-1.8-1-2.9-0.2-4.8c1-2.3,1.5-1.1,3.1,0.4
				c1.1,1.1,2.1,2.4,2.9,3.8c0.5,0.8,1.8,0.1,1.3-0.8c-1.8-3.1-4.2-5.3-7.3-7c-0.3-0.1-0.7-0.1-0.9,0.1c-1.9,2.2-1.3,4.1-0.7,6.8
				c0.3,1.5-0.1,3.8-2.5,3.2c-0.7-0.2-1.7-1.6-2.2-2.1c-2.4-2.5-4.1-5.4-5.4-8.6c-0.2-0.5-0.8-0.8-1.3-0.3c-1,1.1-3.4,1.3-4.6,0.1
				c-1-1-1.1-4.1-1.3-5.1c-0.3-1.7-0.7-2.9-1.5-4.4C493.5,220.5,492.2,221.3,492.7,222.1L492.7,222.1z"/>
		</g>
	</g>
	<g>
		<g>
			<path class="st6" d="M557.7,296.7c1.6-1.4,3.1-1.9,5.2-1.9c-0.2-0.2-0.5-0.5-0.8-0.8c-0.1,4,2.8,9.5,7.6,8.4
				c3-0.7,3.9-4.5,1.3-6.2c0,0.4,0,0.9,0,1.3c1.1,0.1,2.3,0.1,3.4,0.2c0.8,0.6,1.5-0.7,0.8-1.3c-1.6-1.1-3.2-1.2-4.9-0.2
				c-0.5,0.3-0.5,1,0,1.3c1.2,2.1,0.7,3.2-1.6,3.5c-1.4-0.1-2.4-0.6-3.2-1.7c-1.5-1.5-2-3.3-2-5.4c0-0.4-0.4-0.7-0.8-0.8
				c-2.5,0-4.4,0.7-6.3,2.4C555.9,296.3,557,297.3,557.7,296.7L557.7,296.7z"/>
		</g>
	</g>
	<g>
		<g>
			<path class="st6" d="M592.8,299.4c2.5,2.7,4.6,4.2,8.3,4.1c1.5,0,3.6-1.2,5.1,0c0.7,0.5,1.1,1.8,1.5,2.5c0.8,1.4,1.3,3,2.3,4.3
				c2.2,2.8,6.1,3.1,9,4.7c3.1,1.7,5.5,2.4,9.1,1.4c0.9-0.3,0.5-1.7-0.4-1.4c-5.3,1.5-8.1-2.5-12.7-3.7c-4.2-1-4.5-3.6-6.4-6.9
				c-0.7-1.2-1.5-2.6-2.9-3.1c-0.7-0.3-1.2-0.2-2-0.2c-2.1,0.8-4.3,0.9-6.6,0.2c-1.2-0.9-2.3-1.8-3.3-3
				C593.2,297.6,592.1,298.7,592.8,299.4L592.8,299.4z"/>
		</g>
	</g>
	<g>
		<g>
			<path class="st6" d="M495.2,243.3c0.8,4.5,1.4,9.1,2.8,13.4c0.7,2.1,1.7,4,4,4.5c0.5,0.1,0.9-0.2,0.9-0.7c0.7-6-0.3-11.7-3.1-17
				c-0.4-0.9-1.7-0.1-1.3,0.8c2.6,5.1,3.5,10.6,2.9,16.3c0.3-0.2,0.6-0.5,0.9-0.7c-3.2-0.7-3.5-5.5-4-8c-0.6-2.9-1.2-5.9-1.7-8.9
				C496.5,242,495,242.4,495.2,243.3L495.2,243.3z"/>
		</g>
	</g>
	<g>
		<g>
			<path class="st6" d="M515.7,254c1.7,5.9-0.1,10.7,4,15.8c3.6,4.7,8.9,8.4,13.3,12.3c0.7,0.6,1.8-0.4,1.1-1.1
				c-4.1-3.6-8.6-6.9-12.2-11c-2.4-2.7-3.8-5.7-4-9.3c-0.1-2.5,0-4.7-0.7-7.1C516.9,252.6,515.4,253,515.7,254L515.7,254z"/>
		</g>
	</g>
	<g id="XMLID_1_">
		<g>
			<path class="st6" d="M235.4,80.4c0,18.1-14.7,32.8-32.8,32.8c-13.5,0-25-8.1-30.1-19.7c4.1,3.3,9.3,5.3,15,5.3
				c13.1,0,23.8-10.7,23.8-23.8c0-13.1-10.6-23.7-23.7-23.8c4.5-2.3,9.6-3.6,15-3.6C220.7,47.6,235.4,62.3,235.4,80.4z"/>
		</g>
		<g>
			<path class="st7" d="M187.6,51.2c4.5-2.3,9.6-3.6,15-3.6c18.1,0,32.8,14.7,32.8,32.8s-14.7,32.8-32.8,32.8
				c-13.5,0-25-8.1-30.1-19.7"/>
			<path class="st7" d="M187.6,51.2c13.1,0.1,23.7,10.7,23.7,23.8c0,13.1-10.6,23.8-23.8,23.8c-5.7,0-10.9-2-15-5.3"/>
		</g>
	</g>
</g>
<g id="Layer_1">
	<g>
		<g>
			<path class="st6" d="M229.7,191.1c-1.7,32.8-1.1,65.7,1.9,98.3c1.4,15.6,3.3,31.1,5.8,46.6c1.8,10.9,4.6,22.2,14,29.1
				c0.7,0.5,1.6,0.1,2.1-0.5c4.6-6.5,7.1-13.8,7.4-21.8c-1,0-2,0-3,0c0.9,7.8,5,14.4,11.7,18.6c0.7,0.4,1.7,0.1,2.1-0.5
				c6.1-10.6,6.2-22.8,5.6-34.7c-0.8-15.3-1.5-30.6-1.9-45.9c-0.7-30.7-0.3-61.4,1.3-92.1c0.1-1.9-2.9-1.9-3,0
				c-1.5,29.3-1.9,58.7-1.4,88.1c0.3,14.5,0.8,29,1.6,43.5c0.7,13.3,2.1,27.5-4.9,39.5c0.7-0.2,1.4-0.4,2.1-0.5
				c-5.7-3.6-9.4-9.3-10.2-16c-0.2-1.9-2.9-2-3,0c-0.3,7.5-2.7,14.2-7,20.3c0.7-0.2,1.4-0.4,2.1-0.5c-10.4-7.7-11.8-22-13.6-33.8
				c-2.3-15.6-4.1-31.3-5.4-47c-2.4-30.1-2.8-60.4-1.2-90.6C232.8,189.2,229.8,189.2,229.7,191.1L229.7,191.1z"/>
		</g>
	</g>
	<g>
		<g>
			<path class="st6" d="M292.1,192.6c-2,56.8-2.7,113.7-2.1,170.6c0,0.6,0.5,1.3,1.1,1.4c6.7,1.6,13,0.9,19.2-2
				c1.7-0.8,0.2-3.4-1.5-2.6c-5.4,2.6-11.1,3.1-16.9,1.7c0.4,0.5,0.7,1,1.1,1.4c-0.6-56.9,0.1-113.8,2.1-170.6
				C295.1,190.6,292.1,190.6,292.1,192.6L292.1,192.6z"/>
		</g>
	</g>
	<g>
		<g>
			<path class="st6" d="M292.5,257.8c5-0.6,10.1-1.2,15.1-1.8c1.9-0.2,1.9-3.2,0-3c-5,0.6-10.1,1.2-15.1,1.8
				C290.6,255,290.6,258,292.5,257.8L292.5,257.8z"/>
		</g>
	</g>
	<g>
		<g>
			<path class="st6" d="M294,195.7c6-0.6,12.1-1.2,18.1-1.8c1.9-0.2,1.9-3.2,0-3c-6,0.6-12.1,1.2-18.1,1.8
				C292.1,192.9,292.1,195.9,294,195.7L294,195.7z"/>
		</g>
	</g>
	<g>
		<g>
			<path class="st6" d="M319.8,194.1c0.9,56,1.8,112.1,2.7,168.1c0,0.8,0.7,1.5,1.5,1.5c6.6-0.4,13-1.7,19.1-4.3
				c1.8-0.7,1-3.6-0.8-2.9c-5.9,2.4-11.9,3.8-18.3,4.1c0.5,0.5,1,1,1.5,1.5c-0.9-56-1.8-112.1-2.7-168.1
				C322.8,192.2,319.8,192.2,319.8,194.1L319.8,194.1z"/>
		</g>
	</g>
	<g>
		<g>
			<path class="st6" d="M347.9,191.1c0.1,30.9,0.3,61.9,0.4,92.8c0.1,15.6,0.1,31.3,0.2,46.9c0,7.3,0.1,14.6,0.1,22
				c0,3.5-1.8,11.9,2,13.9c6.9,3.5,15.2-13.8,17.4-17.9c5.2-10.2,8.3-21.3,10.2-32.5c4.1-24.6,4.1-51,1.9-75.8
				c-1.2-13.7-3.3-28.5-10.2-40.6c-5.1-9-13.4-17-24.4-16.1c-1.9,0.2-1.9,3.2,0,3c11-0.9,18.7,8.1,23.1,17.1
				c5.5,11.1,7.4,24.3,8.5,36.5c1.9,21.7,1.8,44.4-0.6,66.1c-1.2,10.7-3.3,21.3-7,31.4c-1.8,4.9-4,9.6-6.7,14
				c-1.2,2-2.4,3.9-3.8,5.7c-0.8,1.1-2.4,3.7-3.6,4.5c-0.5,0.4-0.9,0.8-1.4,1.2c-2-1-2.8-2.6-2.4-4.6c-1.1-5.5-0.1-12.3-0.1-18
				c0-7-0.1-14-0.1-21c-0.1-13-0.1-26-0.2-38.9c-0.1-29.9-0.3-59.9-0.4-89.8C350.9,189.1,347.9,189.1,347.9,191.1L347.9,191.1z"/>
		</g>
	</g>
	<g>
		<g>
			<path class="st6" d="M397.4,190.9c-2.7,30.3-4.8,60.7-6.2,91.1c-0.7,15.2-1.2,30.4-1.6,45.6c-0.2,7-0.5,14.1-0.4,21.1
				c0.1,4.3,0.5,9,2.7,12.8c4.7,8.4,14.1,6.2,19.7,0c8.1-9.1,11.3-22.2,13.7-33.7c5.7-27.9,7.1-56.6,6.5-85.1
				c-0.3-13.8,0.3-29.5-6.7-41.9c-5.3-9.5-15.8-16.1-26.8-13.8c-1.9,0.4-1.1,3.3,0.8,2.9c12.6-2.6,22.7,7.9,26.2,19
				c3.6,11,3.2,23.3,3.5,34.8c0.5,25.3-0.6,50.8-5,75.7c-2,11.4-4.3,23.3-10,33.5c-2.7,4.8-7.7,12.7-14.3,11.2
				c-5.5-1.2-6.8-8.1-7.1-12.8c-0.9-12,0.3-24.4,0.6-36.5c0.4-12.6,0.9-25.1,1.5-37.7c1.4-28.8,3.4-57.5,6-86.2
				C400.6,189,397.6,189,397.4,190.9L397.4,190.9z"/>
		</g>
	</g>
	<g>
		<g>
			<path class="st6" d="M439.3,366.6c7.7-60.2,13.6-120.7,17.7-181.2c-1,0-2,0-3,0c2.4,60.3,4.8,120.6,7.2,180.8c0.1,2,2.8,1.9,3,0
				c5.4-60.7,7.6-121.7,6.3-182.7c0-1.9-3-1.9-3,0c1.2,61-0.9,122-6.3,182.7c1,0,2,0,3,0c-2.4-60.3-4.8-120.6-7.2-180.8
				c-0.1-1.9-2.9-1.9-3,0c-4.2,60.6-10.1,121-17.7,181.2C436.1,368.5,439.1,368.5,439.3,366.6L439.3,366.6z"/>
		</g>
	</g>
	<g>
		<g>
			<path class="st6" d="M284.8,33.5c1.2,46,2.3,91.9,3.5,137.9c0,1.9,3,1.9,3,0c-1.2-46-2.3-91.9-3.5-137.9
				C287.7,31.6,284.7,31.6,284.8,33.5L284.8,33.5z"/>
		</g>
	</g>
	<g>
		<g>
			<path class="st6" d="M288.7,100c10.2-4.7,14.9-15.4,15.9-26.1c1.3-14-1.4-28.8-4.5-42.4c-0.4-1.9-3.3-1.1-2.9,0.8
				c2.7,11.8,4.7,24,4.6,36.2c0,11.5-3.4,23.8-14.6,28.9C285.5,98.2,287,100.8,288.7,100L288.7,100z"/>
		</g>
	</g>
	<g>
		<g>
			<path class="st6" d="M292.6,98c0.9-2,2.4-3.3,4.5-3.9c-0.6-0.2-1.1-0.5-1.7-0.7c6.4,11.7,5.2,26.2,5.5,39.2
				c0.3,13.9,0.7,27.9,1,41.8c0,1.9,3,1.9,3,0c-0.4-15.3-0.7-30.6-1.1-45.8c-0.3-12.4,0.3-25.5-5.8-36.7c-0.3-0.6-1.1-0.9-1.7-0.7
				c-3,0.8-5,2.5-6.3,5.3C289.2,98.2,291.8,99.8,292.6,98L292.6,98z"/>
		</g>
	</g>
	<g>
		<g>
			<path class="st6" d="M318.9,177.3c-4.8-41.6-6.6-83.5-5.2-125.4c0.1-3.2-1.1-15.4,2.5-17c4.3-1.9,9.6,2.7,11.9,5.8
				c4.9,6.7,6.1,15.5,6.2,23.5c0,17.5-7.2,34.6-19.7,46.8c-1,1,0,3,1.5,2.5c11.4-3.6,12.9,53.3,12.7,60.7c-0.1,1.9,2.9,1.9,3,0
				c0.4-14.3-0.7-28.6-3.4-42.7c-1.1-5.9-3-24-13.1-20.9c0.5,0.8,1,1.7,1.5,2.5c10.6-10.4,17.6-24,19.8-38.7
				c1.8-12.2,1.3-28-7.6-37.6c-3.3-3.6-9-6.6-14-4.7c-2,0.8-2.9,2.2-3.4,4.3c-1,4.2-0.5,9.2-0.7,13.4c-0.7,19.6-0.7,39.2-0.1,58.9
				c0.8,22.9,2.5,45.7,5.1,68.5C316.1,179.2,319.1,179.3,318.9,177.3L318.9,177.3z"/>
		</g>
	</g>
	<g>
		<g>
			<path class="st6" d="M342.9,176c7.8-2.1,15.7-3.1,23.8-3.2c1.9,0,1.9-3,0-3c-8.4,0.1-16.5,1.2-24.6,3.3
				C340.3,173.6,341,176.5,342.9,176L342.9,176z"/>
		</g>
	</g>
	<g>
		<g>
			<path class="st6" d="M357,171.3c-1.3-22.8-2.7-45.5-2.1-68.3c0.6-22.2,5.7-44.6,3.9-66.8c-0.2-1.9-3.2-1.9-3,0
				c1.8,22.2-3.3,44.6-3.9,66.8c-0.6,22.8,0.7,45.6,2.1,68.3C354.1,173.2,357.1,173.2,357,171.3L357,171.3z"/>
		</g>
	</g>
	<g>
		<g>
			<path class="st6" d="M342.7,38.9c7.9-2,15.9-2.8,24-2.4c1.9,0.1,1.9-2.9,0-3c-8.4-0.4-16.6,0.4-24.8,2.5
				C340.1,36.5,340.9,39.4,342.7,38.9L342.7,38.9z"/>
		</g>
	</g>
	<g>
		<g>
			<path class="st6" d="M399.6,59.6c1.8-8.5,0.4-20-7.6-25.2c-2.8-1.8-6.4-2.8-9.4-0.9c-3.7,2.3-3.9,7.6-4.4,11.4
				c-1.6,12.2-2.4,26.3,0.7,38.3c0.8,3.1,2.4,6.1,5.7,7.2c4.4,1.4,8.5-1.9,11.6-4.6c-0.8-0.2-1.7-0.4-2.5-0.7
				c2.9,20.7,3,41.7,0,62.4c-0.7,4.7-1.5,9.3-2.5,14c-0.5,2.5-1.1,4.9-1.7,7.4c-0.3,1.1-0.6,2.2-0.9,3.2c-3.3,2.5-5.6,2.2-6.9-0.8
				c-2.4-4.2-3.4-9.8-4.3-14.5c-1-5.2-1.6-10.5-1.8-15.8c-0.1-1.9-3.1-1.9-3,0c0.2,6.2,0.9,12.3,2.3,18.4c1.1,4.9,2.1,10.8,5.3,14.9
				c1.9,2.5,5.1,4.6,8.2,2.9c4-2.2,4.4-9.2,5.3-13.1c5.9-26.2,6.7-53.3,2.9-79.8c-0.2-1.2-1.8-1.3-2.5-0.7c-1.4,1.2-4,3.8-5.9,3.8
				c-2.8,0.1-5.4-2-6.2-4.5c-1-3.2-1.2-6.8-1.4-10.1c-0.6-6.8-0.6-13.7-0.1-20.5c0.3-3.6,0.5-7.2,1.3-10.7c0.6-2.9,1-6.6,5.7-6
				c1.7,0.2,3.7,1.7,4.9,2.9c5.1,5,5.8,13.7,4.4,20.3C396.4,60.7,399.2,61.5,399.6,59.6L399.6,59.6z"/>
		</g>
	</g>
	<g>
		<g>
			<path class="st6" d="M489.5,183.5c0,62.1,0,124.2,0,186.4c0,1.9,3,1.9,3,0c0-62.1,0-124.2,0-186.4
				C492.5,181.6,489.5,181.6,489.5,183.5L489.5,183.5z"/>
		</g>
	</g>
	<g>
		<g>
			<path class="st6" d="M490.2,185.7c19.6,17.4,26.1,42,38.4,64.1c13.2,23.9,27.5,47.2,41.3,70.8c1,1.7,3.6,0.2,2.6-1.5
				c-14.1-24.1-28.8-47.9-42.2-72.4c-6.3-11.6-10.7-24-16.8-35.7c-5.4-10.3-12.4-19.7-21.1-27.4
				C490.8,182.3,488.7,184.4,490.2,185.7L490.2,185.7z"/>
		</g>
	</g>
	<g>
		<g>
			<path class="st6" d="M573,320.2c10-7.2,18.2-16.1,24.6-26.6c2.4-3.9,5.3-8.2,10.4-6.4c4.4,1.5,6.9,5.7,8.4,9.8
				c2.1,5.5,3.5,10.8,7.2,15.5c4,5,9.2,8.8,13.4,13.5c4.8,5.5,7.9,12,11.3,18.4c5.3,9.8,11.6,19.4,22.5,23.4
				c1.8,0.7,2.6-2.2,0.8-2.9c-14.5-5.4-19.5-21.2-26.9-33.2c-3.4-5.6-7.7-10.1-12.5-14.5c-2.8-2.6-5.6-5.2-7.7-8.4
				c-2.3-3.4-3.4-7.2-4.7-11c-2.7-7.6-11.1-19.2-20.3-12c-2.3,1.8-3.6,4.5-5.1,7c-2,3.4-4.3,6.6-6.8,9.6
				c-4.7,5.8-10.2,10.8-16.3,15.2C569.9,318.7,571.4,321.3,573,320.2L573,320.2z"/>
		</g>
	</g>
	<g>
		<g>
			<path class="st6" d="M492.5,370.8c60.6,0,121.2,0,181.8,0c1.9,0,1.9-3,0-3c-60.6,0-121.2,0-181.8,0
				C490.6,367.8,490.6,370.8,492.5,370.8L492.5,370.8z"/>
		</g>
	</g>
	<g>
		<g>
			<path class="st6" d="M674,369.1c-0.6-1-1.1-2-1.7-2.9c-1-1.7-3.5-0.2-2.6,1.5c0.6,1,1.1,2,1.7,2.9
				C672.4,372.3,675,370.8,674,369.1L674,369.1z"/>
		</g>
	</g>
	<g>
		<g>
			<path class="st6" d="M213.7,177.4c0,64.1,0,128.3,0,192.4c0,1.9,3,1.9,3,0c0-64.1,0-128.3,0-192.4
				C216.7,175.5,213.7,175.5,213.7,177.4L213.7,177.4z"/>
		</g>
	</g>
	<g>
		<g>
			<path class="st6" d="M215.2,369.9c-59.6,0-119.2,0-178.8,0c-1.9,0-1.9,3,0,3c59.6,0,119.2,0,178.8,0
				C217.1,372.9,217.1,369.9,215.2,369.9L215.2,369.9z"/>
		</g>
	</g>
	<g>
		<g>
			<path class="st6" d="M39.8,371.3c-1.1-12.5,12.3-18,20.5-24.4c7.9-6.2,9.3-14.6,14.1-22.9c3.1-5.3,9.6-10.5,15.7-6.4
				c3,2,4.8,5.1,8.6,5.6c7.1,1.1,11.9-6.7,13.9-12.4c6.6-18.6,6.7-38.9,25.8-50c8.2-4.8,17-8.2,23.6-15.3c6.3-6.7,10.6-15,14.3-23.3
				c8.2-18.3,16.7-42.9,39.4-46.8c1.9-0.3,1.1-3.2-0.8-2.9c-18.4,3.2-29,20.5-36,36.2c-4,9.1-7.6,18.4-12.9,26.8
				c-6.3,9.9-14.9,15.2-25,20.5c-8.2,4.3-15.2,9.5-19.8,17.8c-4.5,8.1-6.6,17.3-8.8,26.3c-1.2,4.9-2.2,10.2-5,14.6
				c-1.2,1.9-2.8,4-4.9,5c-4.7,2.1-7.2-2.1-10.4-4.5c-6.3-4.6-14-1.1-18.4,4.4c-3.5,4.3-4.9,9.9-7.2,14.8c-3,6.2-7.7,10-13.3,13.8
				c-8.1,5.4-17.3,12.2-16.4,23C37,373.2,40,373.2,39.8,371.3L39.8,371.3z"/>
		</g>
	</g>
	<g>
		<g>
			<path class="st6" d="M555.4,290.9c4.6-2.4,10.9-7.3,16.2-6.7c4.2,0.5,5.3,4.4,6.5,8c1.5,4.6,2.9,9.9,7.7,11.9
				c1.8,0.7,3.3-1.8,1.5-2.6c-6.8-2.9-5.5-12.8-10-17.8c-6.4-7.2-17.2,1.4-23.4,4.6C552.1,289.2,553.7,291.7,555.4,290.9
				L555.4,290.9z"/>
		</g>
	</g>
</g>
</svg>
