<?xml version="1.0" encoding="utf-8"?>
<!-- Generator: Adobe Illustrator 19.2.1, SVG Export Plug-In . SVG Version: 6.00 Build 0)  -->
<svg version="1.1" xmlns="http://www.w3.org/2000/svg" xmlns:xlink="http://www.w3.org/1999/xlink" x="0px" y="0px"
	 viewBox="0 0 259.6 418.6" style="enable-background:new 0 0 259.6 418.6;" xml:space="preserve">
<style type="text/css">
	.st0{fill:#ED146F;}
	.st1{fill:#61D2D6;}
</style>
<g id="Layer_2">
	<g>
		<g>
			<path class="st0" d="M135,36c6.4-2.7,19.4-6.1,20.6,4.6c0.1,0.5,0.4,0.9,0.9,0.7c5.1-1.7,10.4-2.1,15.7-0.6
				c2.5,0.7,6.3,3.5,9.1,2.4c2.5-1,3.4-4.4,0.9-5.8c-0.1,0.5-0.3,0.9-0.4,1.4c6.8,0.7,13.8,1.5,20.4,3.5c6.6,2,11.8,6,18,8.9
				c1.9,0.9,3.9,1.6,5.9,1.8c1,0.1,4.1-0.9,4.5-0.7c2.4,0.9,0.8,4.5-0.6,5.9c-1.9,2-4.7,2.5-7.3,1.9c-3.8-0.9-6.8-3.8-9.6-6.3
				c-0.3-0.3-0.9-0.3-1.2,0.2c-2.1,4-5.8,6.2-10.3,6c-0.5,0-0.9,0.5-0.7,0.9c0.6,1.7,3.3,5.6,2.9,6.9c-0.6,2.1-7.9,3.8-10.2,4.6
				c-5.8,2-11.7,3.5-17.7,4.4c-5.3,0.8-17.8,1.2-15.9,9.4c1.3,5.5,0.1,11.3-2.8,16.1c-1.5,2.4-3.4,4.6-5.7,6.3
				c-0.9,0.7-2.5,2-3.8,1.3c-0.9-0.5-0.6-4.6-0.6-5.3c-0.2-14.1,10.1-25,19.2-34.5c-0.4-0.2-0.8-0.5-1.3-0.7
				c-2.3,6.1-10.2,2.6-14.6,3.4c-2.9,0.5-4.7,2.2-6.9,4c-7.5,6-16.7,6.3-25.9,7.4c-10.6,1.3-25.5,6.8-24.5,19.9
				c0,0.6,0.6,0.9,1.1,0.6c1.4-0.7,6.1-3.3,6.3-3c0.4,0.6-0.1,3.1-0.1,3.9c-0.2,3.8-0.6,7.6-1.1,11.3c-0.5,3.7-1,6.5-2.7,9.9
				c-1.6,3.1-3.5,6.2-5.8,8.8c-1.5,1.7-5,5.9-7.2,5.6c-1.1-0.2-1.9-1.5-2.9-2c-1.3-0.6-2.6-0.5-3.9,0c-3,1.1-5.1,4.3-5.8,7.3
				c-0.6,2.8,0.5,5.4,1.4,8c0.7,2,1.6,4.2,1.6,6.3c0,1.4-0.7,4.5-2.8,4.1c-2-0.4-1.6-5.6-1.5-6.8c0.1-0.5-0.5-0.8-0.9-0.7
				c-3.5,0.5-5.1-0.2-3.6-4.3c0.2-0.5-0.3-1-0.7-0.9c-1.3,0.1-2.6,0.1-3.9,0.3c-1.2,0.2-7.2,1.9-3.6-2.4c0.4-0.5,0.2-1.3-0.5-1.3
				c-5.7-0.2-10.1,4.4-9.6,10.1c0,0.4,0.3,0.8,0.8,0.8c2.2-0.2,4.5-0.5,6.7-0.7c-0.2-0.4-0.4-0.9-0.5-1.3c-2.4,2.4-3.6,5.5-3.4,8.9
				c0.1,1.3,0.4,2.6,0.8,3.8c0.4,1.1,1.4,1.9,1.8,3c0,0.1,0.1,0.1,0.1,0.2c1.5,1.2,1,1.3-1.7,0.3c-0.6-0.6-1.7,0.2-1.2,0.9
				c1.4,1.8,2.8,3.6,4.1,5.3c0.2-0.4,0.4-0.8,0.6-1.1c-1.6-0.2-1.1-0.2-2.5,0.3c-0.4,0.1-0.6,0.5-0.5,0.9c3.2,13.5-6.8,21.7-18,26.3
				c-3.5,1.4-6.6,2.5-10.4,1.4c-1.3-0.4-2.5-1.2-4-1.1c-2.3,0.1-3.9,1.9-4.7,3.9c-3.2,9.3,13.2,14.3,6.9,23.6
				c-1.2,1.7-2.8,3-4.3,4.4c-0.7,0.7-3,3.7-3.6,3.8c-1.6,0.1-4-3.3-5.1-4.3c-2.3-2.2-4.6-4.4-6.9-6.6c-0.7-0.7-1.8,0.4-1.1,1.1
				c4.2,4,8.3,7.9,12.5,11.9c0.4,0.3,0.9,0.3,1.2-0.2c3.3-5,11.4-8.6,10.4-15.6c-0.6-3.8-3.6-6.6-5.9-9.4c-1.1-1.5-1.8-2.4-2.3-4.2
				c-0.9-1.6-0.8-3.2,0.1-4.8c2.1-0.4,4.1-0.7,6.2-1.1c1.3,0.2,2.3,1,3.8,1c3.7,0,7.5-2.1,10.8-3.6c3.8-1.7,7.6-3.8,10.6-6.8
				c2.4-2.4,4.2-5.4,5.2-8.6c0.5-1.7,0.8-3.5,0.9-5.3c0-1-1-5.6,0.9-5.4c0.5,0.1,1-0.7,0.6-1.1c-1.4-1.8-2.8-3.6-4.1-5.3
				c-0.4,0.3-0.8,0.6-1.2,0.9c1.7,1.7,3.7,1.7,5.5,0.1c0.3-0.2,0.3-0.8,0-1.1c-4.9-3.8-5.4-10.9-1-15.3c0.4-0.4,0.1-1.4-0.5-1.3
				c-1.3,0.1-5.1,1.2-6,0.1c0.2-2.2,1-4,2.6-5.4c1.6-1.5,3.5-2.1,5.6-1.9c-0.2-0.4-0.4-0.9-0.5-1.3c-1.4,1.8-1.8,3.3-1.2,5.5
				c0.1,0.4,0.5,0.6,0.9,0.5c1.7-0.4,6.6-2.2,7.6-0.8c0.3,0.4,0.2,3.9,0.5,4.8c0.1,0.4,0.5,0.6,0.9,0.5c2.9-0.4,3-0.9,3.5,1.9
				c0.3,1.8,0.8,3.2,1.5,4.8c0.2,0.3,0.5,0.4,0.8,0.3c4.3-0.8,5.5-3.6,4.8-7.7c-0.5-2.6-1.6-5-2.3-7.5c-0.5-1.7-0.8-3.3-0.3-5.1
				c1.2-4.2,6-8.8,10-3.3c0.2,0.3,0.6,0.5,1,0.3c10.6-6,16-16.8,17.3-28.5c0.4-3.8,2.1-10,1-13.7c-0.2-0.6,0-1.2-0.7-1.5
				c-1.4-0.6-6.5,3-7.8,3.6c0.4,0.2,0.8,0.4,1.1,0.6c-0.7-9.1,7.7-14.7,15.5-17.1c7.4-2.2,15.4-1.7,22.9-3.5c3.2-0.8,6.3-1.9,9-3.8
				c4.1-2.8,6.7-5.9,12.3-5.5c4.7,0.3,10.2,0.8,12.2-4.4c0.3-0.7-0.8-1.2-1.3-0.7c-11,11.5-23.3,25.7-18.5,42.8
				c0.1,0.4,0.5,0.7,0.9,0.5c10.6-4.4,15.3-14.9,14-25.9c-0.3-2.9-0.1-4.1,2.8-5.7c1.4-0.7,3-1.1,4.5-1.4c4.2-0.9,8.5-1.2,12.7-2
				c8.4-1.8,16.6-4.7,24.3-8.4c0.3-0.2,0.5-0.7,0.3-1c-1-1.3-2.1-2.7-2.8-4.3c-1.2-2.9-0.2-1.9,1.6-2.3c1.9-0.4,3.6-1.3,5.1-2.6
				c2.9-2.5,1.8-3.4,5.2-0.7c1.7,1.3,3.4,2.5,5.4,3.3c3.6,1.3,7.4,1,10.1-1.8c2.4-2.5,3.2-5.8,1-8.7c-0.2-0.3-0.6-0.5-1-0.3
				c-8.1,4.4-18-5.6-25.4-8.4c-7.6-2.8-15.8-3.7-23.9-4.6c-0.8-0.1-1,1.1-0.4,1.4c-1,2.8-2.4,3.6-4.3,2.4c-0.5-0.2-1-0.4-1.5-0.6
				c-1-0.4-2-0.8-3.1-1.1c-2.4-0.7-5-1-7.5-1c-2.1,0-4.6,1-6.7,0.9c-2.3-0.1-1.4-0.6-2.6-2.6c-4.9-7.8-14.9-4.7-21.6-1.9
				C133.3,35.1,134.1,36.4,135,36L135,36z"/>
		</g>
	</g>
	<g>
		<g>
			<path class="st0" d="M135.2,35.1c-2.3-8.4-14.6-7.3-21.3-7.1c-6.2,0.2-12.4,0.9-18.5,2.2c-5.1,1.1-15,6-19.9,3.1
				c-3.9-2.3-0.8-8.7-5.4-11.5c-4.1-2.5-8.7-0.8-12.9,0.4c-7.2,2-14.6,1.8-22,1.7c-7.6-0.1-15.2-0.2-22.8-0.3
				c0.1,0.5,0.3,0.9,0.4,1.4c3.8-1.6,26.5-11.8,19-18.1c-8.4-7-23.2-4.2-31.3,1.4c-0.8,0.5,0,1.8,0.8,1.3c7.3-5,16.5-6.6,25-3.7
				c1.4,0.5,2.7,1,3.9,1.7c1.2,2.9,0.8,5-1.4,6.2c-1.3,1.5-3.5,2.7-5.1,3.8C20,20,16.1,22,12.1,23.7c-0.7,0.3-0.3,1.4,0.4,1.4
				c12.7,0.2,26,1.4,38.7-0.1c2.2-0.3,4.4-0.7,6.5-1.3c1.5-0.4,2.9-1,4.4-1.3c3.7-0.8,5.3-0.6,7.8,2.4c2.4,2.9,1.6,2.4,1.9,5.3
				c0.1,0.6,0.1,1.1,0.3,1.7c0.4,1.1,1.1,2.1,2.1,2.7c2.1,1.4,5.1,1.2,7.5,0.9c5.4-0.8,10.7-3,16.1-4c6.6-1.2,13.3-1.8,19.9-1.8
				c5.3,0,14.3-0.4,16.1,6.1C134,36.4,135.5,36,135.2,35.1L135.2,35.1z"/>
		</g>
	</g>
	<g>
		<g>
			<path class="st0" d="M108.4,128.3c-0.5-6.2-1.1-12.4-1.5-18.6c-0.1-1.1-0.6-5.9,2.8-0.1c0.5,0.9,0,3.5,0.1,4.6
				c0,3.3,0.9,8.2-1.2,11c-0.2,0.2-0.1,0.7,0.1,0.9c0.1,0.8,0.1,1.6,0.2,2.4c-0.7-0.7-1.7,0.4-1.1,1.1c2.1,2.1,4.2-0.2,3.7-2.6
				c-0.3-1.4-0.7-0.8-0.8-2.2c-0.1-1.1,0.6-3,0.6-4.2c0.1-3.8,0.5-8.5-0.2-12.2c-0.5-2.3-2.9-5.8-5.2-2.8c-1.6,2-0.3,6.3-0.1,8.6
				c0.4,4.7,0.7,9.5,1.1,14.2C107,129.2,108.5,129.2,108.4,128.3L108.4,128.3z"/>
		</g>
	</g>
	<g>
		<g>
			<path class="st0" d="M109.2,134.7c1.8,1.1,4.8,2.2,5.8,4c0.6,1,0.4,1.5-0.6,2.1c-0.7,0.4-1.2,0.5-2,0.3c-1.2-0.2-2.3-0.9-3.3-1.5
				c-0.4-0.2-1,0-1.1,0.4c-0.2,1.2-1,1.8-2.4,1.8c0.2,0.3,0.3,0.6,0.5,0.9c1.1-3,2.2-6,3.3-9.1c0.3-0.9-1.1-1.3-1.4-0.4
				c-1.1,3-2.2,6-3.3,9.1c-0.1,0.3,0.1,0.9,0.5,0.9c2,0.3,3.8-0.8,4.2-2.8c-0.4,0.1-0.7,0.3-1.1,0.4c2.5,1.5,6.8,3.2,8.5-0.5
				c0.5-1.2,0.3-2.4-0.7-3.3c-1.6-1.6-4.2-2.6-6.1-3.8C109.1,132.9,108.3,134.2,109.2,134.7L109.2,134.7z"/>
		</g>
	</g>
	<g>
		<g>
			<path class="st0" d="M106.2,146.9c1.1,7.2,1.4,15.2-7,17.6c-2.4,0.7-1.7,0.4-3.1,2.3c-0.2,2-1.5,2.9-4.1,2.6
				c-0.1-0.4-0.1-0.9-0.3-1.3c-0.3-0.2-0.4-0.7-0.6-1c-1-1-2.3-0.8-3.6-0.8c-1,0.1-1.9,0.5-2.9,0.5c-4.1,0.4-0.8-0.4,1-1
				c3.3-1.1,6.5-2.6,9.4-4.3c2.5-1.5,5.8-3.3,7.7-5.7c1.1-1.4,1.7-7.7,3.5-7.5c1,0.1,1-1.4,0-1.5c-1.3-0.1-1.9-0.1-2.8,1
				c-2,2.4-0.1,4.9-2.7,7.9c-4.8,5.4-13.8,8.4-20.5,10.1c-0.4,0.1-0.7,0.7-0.4,1.1c2.5,3.5,5.6-0.2,8.7,0.8c2.8,0.9,2.1,7.1,6.5,4.5
				c1.9-1.1,2-3.6,3.4-5.1c1.8-1.8,4.5-1.9,6.5-3.9c4.5-4.4,3.7-11.2,2.9-16.9C107.5,145.6,106.1,146,106.2,146.9L106.2,146.9z"/>
		</g>
	</g>
	<g>
		<g>
			<path class="st0" d="M81.2,175.7c1.2-1,1.6-2.8,0.9-4.2c-0.7-1.4-2.3-2-3.7-1.6c-1.5,0.4-2.5,1.8-2.2,3.4
				c0.4,1.6,1.9,2.7,3.6,2.4c0.9-0.2,0.5-1.6-0.4-1.4c-0.9,0.2-1.7-0.7-1.7-1.6c0-0.8,0.8-1.3,1.5-1.4c2-0.2,2.3,2.4,1,3.4
				C79.4,175.2,80.5,176.3,81.2,175.7L81.2,175.7z"/>
		</g>
	</g>
	<g>
		<g>
			<path class="st0" d="M88.2,169.5c-1-0.3-2,0.1-2.6,0.9c-0.2,0.3-0.1,0.8,0.3,1c0.4,0.2,0.8,0.1,1-0.3c0.2-0.3,0.6-0.3,0.9-0.2
				C88.8,171.2,89.2,169.8,88.2,169.5L88.2,169.5z"/>
		</g>
	</g>
	<g>
		<g>
			<path class="st0" d="M52.4,203.3c-1.1-2.2,0.7-5,3.1-5.1c-0.2-0.2-0.5-0.5-0.8-0.8c-0.2,2.6-1.4,4.9-3.5,6.6
				c-0.8,0.6,0.3,1.7,1.1,1.1c2.4-1.9,3.7-4.6,3.9-7.7c0-0.4-0.4-0.8-0.8-0.8c-3.6,0.1-6,4.2-4.4,7.3
				C51.5,205,52.8,204.2,52.4,203.3L52.4,203.3z"/>
		</g>
	</g>
	<g>
		<g>
			<path class="st0" d="M25.7,212.2c-1.2-0.2-2.4,0.3-3,1.4c-0.6,1.1,0.2,2.3,1.3,2.8c2.4,1.1,4.5-1.6,3.4-3.8
				c-0.1-0.2-0.4-0.4-0.6-0.4c-0.7,0-1.3,0-2-0.1c-1,0-1,1.5,0,1.5c0.7,0,1.3,0,2,0.1c-0.2-0.1-0.4-0.2-0.6-0.4
				c0.5,0.9-0.3,2-1.3,1.7c-0.3-0.1-0.9-0.5-0.9-0.6c0-0.5,0.9-0.9,1.3-0.8C26.3,213.8,26.7,212.3,25.7,212.2L25.7,212.2z"/>
		</g>
	</g>
	<g>
		<g>
			<path class="st0" d="M54.8,229c0.5-2.6,1-5.2,1.5-7.8c0.3-1.3,0.7-3,0.2-4.3c-0.8-2.1-3.4-2.6-5.2-1.3
				c-5.2,3.7-0.8,11.8,3.6,13.9c0.9,0.4,1.6-0.9,0.8-1.3c-3.4-1.6-6-5.7-4.7-9.5c0.5-1.5,3.7-4.4,4.3-0.1c0.1,1-0.4,2.3-0.6,3.2
				c-0.4,2.3-0.9,4.6-1.3,6.8C53.2,229.6,54.6,230,54.8,229L54.8,229z"/>
		</g>
	</g>
	<g>
		<g>
			<path class="st0" d="M66.5,243.4c-1.8,0.7-3.6,1.9-4.3,3.8c-0.6,1.7,0,3.6,1.5,4.6c1.3,0.9,3.2,1,3.6-0.7c0.7-2.7,0.7-5.5,0-8.2
				c-0.2-0.9-1.7-0.5-1.4,0.4c0.6,2.7,0.6,5.3-0.2,7.9c0.2-0.2,0.3-0.3,0.5-0.5c-1.9,0.7-3.2-1.5-2.6-3.1c0.5-1.4,1.9-2.3,3.2-2.9
				C67.8,244.5,67.4,243,66.5,243.4L66.5,243.4z"/>
		</g>
	</g>
	<g>
		<g>
			<path class="st0" d="M62.2,234.4c0,0.2,0.1,0.5,0.1,0.7c0.1,0.4,0.6,0.6,0.9,0.5c0.4-0.1,0.6-0.5,0.5-0.9c0-0.2-0.1-0.5-0.1-0.7
				c-0.1-0.4-0.6-0.6-0.9-0.5C62.3,233.6,62.2,234,62.2,234.4L62.2,234.4z"/>
		</g>
	</g>
	<g>
		<g>
			<path class="st0" d="M54.7,233.2c-0.6,1.1,0.6,2.3,1.7,1.7c0.8-0.5,0.1-1.8-0.8-1.3c0.2-0.1,0.5,0.1,0.4,0.3
				C56.5,233.1,55.2,232.4,54.7,233.2L54.7,233.2z"/>
		</g>
	</g>
	<g>
		<g>
			<path class="st0" d="M57.8,239.1c0.5,0.8,1,1.5,1.6,2.3c0.5,0.8,1.8,0,1.3-0.8c-0.5-0.8-1-1.5-1.6-2.3
				C58.5,237.6,57.2,238.3,57.8,239.1L57.8,239.1z"/>
		</g>
	</g>
	<g>
		<g>
			<path class="st0" d="M62.1,243.4c1,0,1-1.5,0-1.5C61.2,241.9,61.2,243.4,62.1,243.4L62.1,243.4z"/>
		</g>
	</g>
	<g>
		<g>
			<path class="st0" d="M58.3,233.5c0,0.2,0,0.3,0,0.5c0,1,1.5,1,1.5,0c0-0.2,0-0.3,0-0.5C59.8,232.5,58.3,232.5,58.3,233.5
				c0,0.2,0,0.3,0,0.5c0,1,1.5,1,1.5,0c0-0.2,0-0.3,0-0.5C59.8,232.5,58.3,232.5,58.3,233.5L58.3,233.5z"/>
		</g>
	</g>
	<g>
		<g>
			<path class="st0" d="M61.4,241.1c1,0,1-1.5,0-1.5C60.4,239.6,60.4,241.1,61.4,241.1L61.4,241.1z"/>
		</g>
	</g>
	<g>
		<g>
			<path class="st0" d="M23.4,265.7c5.7-0.9,9.3-7.4,14-10.3c1.5-0.9,5.7-3.9,7.2-3.4c0.9,0.4,3.7,5.2,3.6,5.3
				c-0.1,0.5-1,0.4-1.3,0.8c-0.5,1-1,1.7-1.4,2.9c-2.1,7.2-4.1,20.2-14.5,16.6c-4.8-1.7-3-5.1-5.1-8.4c-0.3-0.4-1.7-1.3-1.8-1.8
				c-0.5-2.1,1.3-2.1,2.4-2.9c0.8-0.6,0-1.9-0.8-1.3c-1.8,1.4-5,1.3-3.6,4.4c0.3,0.7,1.2,1.1,1.7,1.7c2.4,3.2,0.6,2.2,1.3,4.6
				c0.5,1.7,0.9,2.7,2.4,3.8c2.4,1.7,7.3,2.9,10.2,2c4.1-1.2,5.8-7.4,7.1-11c1.5-4.2,1.3-7.5,5.1-10.2c0.8-0.6,1.4-0.4,2.1-1.4
				c1.3-2,0.4-4.9-1.4-6.2c-3.5-2.5-8.8,0.1-12,1.8c-2.5,1.3-4.8,2.9-6.9,4.8c-2.8,2.5-4.9,6-8.9,6.6
				C22.1,264.4,22.5,265.9,23.4,265.7L23.4,265.7z"/>
		</g>
	</g>
	<g>
		<g>
			<path class="st0" d="M1.6,264.6c4.3,2.8,7.9,6.6,10.1,11.3c0.5,1.1,1.3,2.5,1.4,3.7c0.4,4.4-3.9,3.7-5.8,2.1
				c-2.1-1.8-4.1-3.7-6.1-5.6c-0.7-0.7-1.8,0.4-1.1,1.1c2.1,2,13.1,13.8,14.7,5.1c0.6-3.3-1.9-7.6-3.6-10.2
				c-2.3-3.5-5.3-6.4-8.9-8.7C1.5,262.8,0.8,264.1,1.6,264.6L1.6,264.6z"/>
		</g>
	</g>
	<g>
		<g>
			<path class="st0" d="M15,288c6.5-1.7,12.1-1.4,18,1.7c1.6,0.9,3.2,1.8,5,2.3c1.6,0.5,3.9-0.2,5.2,0.3c1-0.3,1.3,0.2,0.9,1.5
				c0.7,1.7,0.1,2.2-1.7,1.5c-1.4,0.2-2.8-0.2-4.1-0.6c-2.2-0.7-4.3-1.7-6.6-2.3c-5.4-1.5-12.5,0.1-15.9-5.4
				c-0.5-0.8-1.8-0.1-1.3,0.8c3.9,6.3,12.1,4.5,18.3,6.6c3.1,1,12.6,5.6,15,0.6c0.6-1.3-0.1-2.7-1.1-3.5c-0.9-0.6-1.7-0.6-2.7-0.7
				c-3-0.3-5.1,0.1-8.1-1.3c-3.6-1.7-6.5-3.6-10.6-4.1c-3.6-0.4-7.1,0.2-10.6,1.1C13.7,286.8,14.1,288.2,15,288L15,288z"/>
		</g>
	</g>
	<g>
		<g>
			<path class="st0" d="M86.5,273.1c1,0,1-1.5,0-1.5C85.6,271.6,85.6,273.1,86.5,273.1L86.5,273.1z"/>
		</g>
	</g>
	<g>
		<g>
			<path class="st0" d="M87,272.1c-1.3-2.2-3.2-4-5.5-5.1c-0.4-0.2-0.8-0.1-1,0.3c-1,1.6-0.9,3.8,0.4,5.3c1.3,1.5,3.4,1.7,5.2,1
				c0.9-0.4,0.1-1.7-0.8-1.3c-2.6,1.1-5-1.8-3.5-4.2c-0.3,0.1-0.7,0.2-1,0.3c2.1,1,3.8,2.5,5,4.5C86.2,273.7,87.5,272.9,87,272.1
				L87,272.1z"/>
		</g>
	</g>
	<g>
		<g>
			<path class="st0" d="M84.3,279.9c4.2,0.3,5.6-0.4,8.8-2.6c2.1-1.4,3.5-4.1,6.9-2.5c0.5,0.2,0.8,1,1.3,1.3c1.3,0.8,2.6,0.8,4,0.9
				c3.7,0.2,5.8,1.1,8.4,3.9c1.1,1.2,2.1,2.4,3.5,3.2c1.3,0.8,6.6,2,6.3,3.5c0.1-0.8-2.9,1.7-2.7,1.5c-0.4,0.4-0.2,0.9,0.2,1.2
				c2.2,1.5,5.2,3.3,5.7,6.1c0.6,3.7-2.7-0.4-4-1.5c-0.9-0.8-1.6-1.7-2.5-2.4c-2.3-1.9-4.7-2.9-7.7-2c-0.4,0.1-0.7,0.7-0.4,1.1
				c-1.4,0.8-2.8,1.6-4.2,2.4c-0.8-0.7-1.6-1.3-2.3-2c-1.1-1-2.1-2-3.1-3c-1.8-1.7-3.4-3.6-5.3-5.2c-2.4-2-10.6-2.5-11-5.4
				c-0.1-1-1.6-0.5-1.4,0.4c0.3,2.4,1.8,3.5,4.2,4.1c3,0.7,5.7,0.9,8.3,3c2,1.6,3.7,3.6,5.5,5.4c3.8,3.7,8.2,7.6,11.4,1.7
				c0.9-1.5-2.1-1.8,1.7-1c3.2,0.7,4.7,2.9,7,4.9c1.3,1.1,4,3.4,5.9,2.2c1.1-0.7,1-1.8,0.7-2.9c-0.4-1.3-1.8-2.5-2.7-3.4
				c-0.5-0.5-5.3-4-2.1-3.5c0.4,0.1,1-0.2,0.9-0.7c-0.5-4.9-5.5-4.1-8.8-6.8c-3-2.4-4.3-5.7-8.5-6.2c-0.9-0.1-1.9,0.1-2.8,0
				c-2.2-0.3-3.4-1.5-5-2.5c-1.1-0.7-1.5-1.3-3-1.3c-1,0-1.9,0.6-2.7,1.2c-1.3,1-0.6,1.2-1.9,2.3c-2.6,2.2-5.2,3.4-8.5,3.2
				C83.3,278.3,83.3,279.8,84.3,279.9L84.3,279.9z"/>
		</g>
	</g>
	<g>
		<g>
			<path class="st0" d="M116.8,392.1c2.9,0.7,5.7,0.9,8.7,0.8c-0.2-0.4-0.4-0.8-0.6-1.1c-1.4,2.9-3,5.6-4.7,8.3
				c0.5,0.1,0.9,0.1,1.4,0.2c-1.1-3.1-3-5.8-5.5-7.9c-0.7-0.6-1.8,0.4-1.1,1.1c2.3,2,4,4.4,5.1,7.2c0.2,0.6,1,0.7,1.4,0.2
				c1.8-2.7,3.4-5.4,4.7-8.3c0.2-0.5,0-1.2-0.6-1.1c-2.8,0.1-5.5-0.2-8.3-0.8C116.3,390.4,115.9,391.9,116.8,392.1L116.8,392.1z"/>
		</g>
	</g>
	<g>
		<g>
			<path class="st0" d="M92.4,305c-4.7,5.2-2.4,14,5.2,14.5c10.4,0.8,9.8-12.8,13.1-19.1c-0.5-0.1-0.9-0.3-1.4-0.4
				c1,9,5.9,16.3,11.4,23.3c7.9,10.1,19.6,20.9,15.9,34.9c-2.7,10.4-10.7,26-23.5,24.4c-10.2-1.3-9.8-13.8-16.8-19.2
				c-0.3-0.2-0.8,0-1,0.3c-1.3,2.2-2.7,4.4-4,6.6c0.5,0.1,0.9,0.1,1.4,0.2c-3.2-8.2-12.3-10.7-20.3-9.1c-7.1,1.3-13.4,5.2-20.2,7.5
				c-2.6,0.9-8.9,3.2-11.4,1.4c-1.5-1.1-0.9-0.7-0.2-2.8c0.4-1.3,0.7-2.6,0.8-4c0.6-5-0.3-10-2.7-14.5c-2.1-4.1-5.6-7.8-3.3-12.7
				c1.6-3.4,5.2-5.3,8.5-6.8c4.9-2.2,9.6-4.1,13.6-7.6c2-1.7,3.7-3.6,5.3-5.7c0.8-1,1.5-2.1,2.3-3.1c0.7-1,1.6-1.8,2.6-2.5
				c3.6-1.6,5.7-0.7,6.3,2.7c0,0.7,1.1,1.1,1.4,0.4c1.5-3.3,3.1-6.6,6-8.9c3.8-3,10.6-3.3,12.3,2.4c0.3,0.9,1.7,0.5,1.4-0.4
				c-1.3-4.2-5.5-6.3-9.8-5.5c-5.8,1-9,6.8-11.2,11.7c0.5,0.1,0.9,0.3,1.4,0.4c0.3-5.3-6.2-6-9.6-3.3c-2.9,2.4-4.6,6.1-7.2,8.7
				c-4,4.1-8.7,6.5-13.8,8.7c-5.5,2.3-12.4,6-11.7,13c0.4,4,3.3,7.1,4.9,10.6c2.8,6.3,2.6,13.3-0.3,19.5c-0.2,0.4-0.1,1,0.4,1.1
				c8.8,1.6,16.6-2.1,24.5-5.5c9-3.8,23.9-7.4,28.5,4.7c0.2,0.6,1,0.8,1.4,0.2c0.4-0.7,2.1-4.6,3-4.9c2.1-0.6,2.9,1.6,3.7,3
				c1.3,2.2,2.1,4.7,3.3,7c1.9,3.7,4.6,6.8,8.9,7.8c10.5,2.5,18.3-6.7,22.5-15c2.6-5,4.8-10.5,5-16.2c0.2-6.1-2.7-11.3-6.1-16.1
				c-8-11.4-20.5-21.9-22.1-36.5c-0.1-0.7-1-1.1-1.4-0.4c-2,3.7-2.4,7.7-3.6,11.6c-1.2,3.7-3.4,6.5-7.5,6.6
				c-6.5,0.2-8.8-7.4-4.8-11.8C94.1,305.3,93,304.2,92.4,305L92.4,305z"/>
		</g>
	</g>
	<g>
		<g>
			<path class="st0" d="M191,389c1.5,0,3,0.1,4.6,0.1c-0.2-0.3-0.5-0.6-0.7-0.9c-0.3,1.7-0.5,3.4-0.8,5.1c-0.1,0.5,0.2,1,0.7,0.9
				c4.3,0,4.2-4.5,6-7.4c1.2-2,5.8-4.7,3.5-7.7c-2-2.6-4.3,1.5-6.6,0.8c-2-0.7-3-4.6-4.3-6.1c-1.2-1.3-2.2-1.9-4-1.7
				c-0.7,0.1-1,1-0.4,1.4c4.7,2.9,5.5,9.6,1.6,13.5c-0.7,0.7,0.4,1.8,1.1,1.1c4.5-4.6,3.6-12.4-1.9-15.8c-0.1,0.5-0.3,0.9-0.4,1.4
				c4.9-0.4,4.8,9.8,10.4,8c0.1,0,2-0.9,1.6-1c3.7,0.7-0.7,3.7-1.1,4.2c-1.9,2.2-1.6,7.9-5.3,8c0.2,0.3,0.5,0.6,0.7,0.9
				c0.3-1.7,0.5-3.4,0.8-5.1c0.1-0.5-0.2-0.9-0.7-0.9c-1.5,0-3-0.1-4.6-0.1C190,387.5,190,389,191,389L191,389z"/>
		</g>
	</g>
	<g>
		<g>
			<path class="st0" d="M188,391.8c0.8,1.2,1.6,1.8,3,2.2c-0.2-0.3-0.3-0.6-0.5-0.9c-1.1,3.6-2.8,6.8-5.3,9.6
				c-1.3,1.5-2.9,2.8-4.6,3.9c-0.7,0.4-1.5,1-2.2,1.2c-0.3,0.1-0.5,0.2-0.8,0.2c-3-1.6-3.6-2.9-1.6-4.1c2.1-2.3,5.6-3.4,8.1-5.5
				c2.4-2.1,4.3-4.6,5.9-7.3c0.5-0.8-0.8-1.6-1.3-0.8c-1.6,2.8-3.6,5.3-6.1,7.4c-2.3,1.9-5.2,2.9-7.4,4.8c-2.1,1.8-3.3,5.5-0.1,6.9
				c3.1,1.3,6.8-1.6,9-3.4c3.9-3.3,6.5-7.6,7.9-12.4c0.1-0.4-0.1-0.8-0.5-0.9c-0.7-0.5-1.4-1-2.1-1.5
				C188.7,390.2,187.4,391,188,391.8L188,391.8z"/>
		</g>
	</g>
	<g>
		<g>
			<path class="st0" d="M66.2,158.5c2.3-1.1,4.5-2.1,6.8-3.2c0.4-0.2,0.1-0.8-0.4-0.6c-2.3,1.1-4.5,2.1-6.8,3.2
				C65.4,158,65.8,158.7,66.2,158.5L66.2,158.5z"/>
		</g>
	</g>
	<g>
		<g>
			<path class="st0" d="M61.6,152.7c1.8-4.2,5.8-7,10.4-7.1c0.5,0,0.5-0.8,0-0.8c-4.9,0.1-9.2,3.1-11.1,7.7
				C60.7,153,61.4,153.2,61.6,152.7L61.6,152.7z"/>
		</g>
	</g>
	<g>
		<g>
			<path class="st0" d="M82.3,139.6c-3.5-2.1,2.9-8.3,4-10.3c1.3-2.2,2-4.6,2.5-7.1c0.1-0.3-0.2-0.6-0.5-0.5
				c-1.6,0.5-3.6,1.5-5.2,1.6c-3,0.2-4.8-1.6-6.8-3.5c-2.6-2.4-4.5-5.3-6.6-8.1c-2.1-2.8-4.6-5.9-8.1-7c-3.2-1-5.7-0.3-7.4,2.6
				c-2.3,4.1-3.8,7-8.6,8.6c-1.5,0.5-3.6,0.5-4.7,1.7c-1.4,1.5-1.3,3,0.3,4.3c1.3,1.1,6.2,1.2,6.7,2.3c-0.6,1.6-1.2,3.1-1.8,4.7
				c-0.9,0.4-1.8,0.7-2.7,1.1c-1.8,0.7-3.6,1.5-5.5,2.2c-1.8,0.7-4.3,1.4-5.7,2.8c-0.6,0.7-0.8,1.4-1.3,2.1c-1.5,2.4-3.4,3.5-6,4.4
				c-7.1,2.4-15.7,3.8-22.4-0.2c-0.4-0.3-0.8,0.4-0.4,0.6c5.8,3.5,12.2,2.8,18.5,1.4c2.7-0.6,5.9-1.2,8.3-2.8c2.3-1.6,2.7-4.3,5-5.9
				c4-2.8,9.9-3.5,14.3-5.8c1-0.5,2-0.9,2.2-2.2c0.1-1.3-1.1-2.4-2.1-3c-1.2-0.8-2.5-0.6-3.7-1.1c-2.4-0.2-2.7-2-0.7-5.4
				c0.6-0.1,1.2-0.3,1.9-0.5c2.5-1.1,4.6-2,6.4-4.1c2.6-3,3.8-8.8,9.2-7.1c7.1,2.3,10.7,12.1,16.3,16.6c2.2,1.8,2.9,2.8,5.6,2
				c1.2-0.4,3.3-1.7,4.5-0.6c0.8,0.7-2.3,5.7-3,6.7c-1.7,2.6-7.6,7.1-2.9,10C82.3,140.5,82.7,139.8,82.3,139.6L82.3,139.6z"/>
		</g>
	</g>
	<g>
		<g>
			<path class="st0" d="M19.9,207.6c-1.2-2.2-2.9-5-5.6-5.6c-1.1-0.2-2.1,0-3.1,0.5c-3.7,1.6-5.4,3.3-9.8,2.5
				c-0.5-0.1-0.7,0.6-0.2,0.7c2.5,0.5,5,0.3,7.4-0.8c2.2-1,3.7-2.7,6.2-1.6c2.2,1,3.3,2.6,4.4,4.7C19.5,208.4,20.1,208,19.9,207.6
				L19.9,207.6z"/>
		</g>
	</g>
</g>
<g id="Layer_3">
	<g>
		<g>
			<path class="st1" d="M248.5,110.7c-1.3,0.3-2.5,0.5-3.8,0.8c-1.9,0.4-1.1,3.3,0.8,2.9c1.3-0.3,2.5-0.5,3.8-0.8
				C251.2,113.2,250.4,110.3,248.5,110.7L248.5,110.7z"/>
		</g>
	</g>
	<g>
		<g>
			<path class="st1" d="M234.2,115.2c-2.7-1-5.5-0.8-8.1,0.4c-1.7,0.8-0.2,3.4,1.5,2.6c1.9-0.9,3.9-0.9,5.8-0.1
				C235.2,118.7,236,115.8,234.2,115.2L234.2,115.2z"/>
		</g>
	</g>
	<g>
		<g>
			<path class="st1" d="M214.6,119.2c-2.1-0.2-4.1,0.6-5.6,2c-1.4,1.3,0.7,3.4,2.1,2.1c1-0.9,2.2-1.2,3.5-1.1
				C216.5,122.3,216.5,119.3,214.6,119.2L214.6,119.2z"/>
		</g>
	</g>
	<g>
		<g>
			<path class="st1" d="M194.4,125.2c-1.8,0.5-3.5,1.1-5.3,1.6c-1.8,0.6-1.1,3.5,0.8,2.9c1.8-0.5,3.5-1.1,5.3-1.6
				C197,127.5,196.2,124.6,194.4,125.2L194.4,125.2z"/>
		</g>
	</g>
	<g>
		<g>
			<path class="st1" d="M174.9,131.5c-1.5,0.8-3.1,1.5-4.6,2.3c-1.7,0.9-0.2,3.4,1.5,2.6c1.5-0.8,3.1-1.5,4.6-2.3
				C178.2,133.2,176.7,130.7,174.9,131.5L174.9,131.5z"/>
		</g>
	</g>
	<g>
		<g>
			<path class="st1" d="M158.9,135.9c-1.8,0.8-3.5,1.6-5.3,2.5c-1.7,0.8-0.2,3.4,1.5,2.6c1.8-0.8,3.5-1.6,5.3-2.5
				C162.1,137.7,160.6,135.1,158.9,135.9L158.9,135.9z"/>
		</g>
	</g>
	<g>
		<g>
			<path class="st1" d="M145.7,141.5c-1.8,0.7-3.6,1.5-5.4,2.2c-0.8,0.3-1.3,1-1,1.8c0.2,0.7,1.1,1.4,1.8,1c1.8-0.7,3.6-1.5,5.4-2.2
				c0.8-0.3,1.3-1,1-1.8C147.3,141.8,146.4,141.1,145.7,141.5L145.7,141.5z"/>
		</g>
	</g>
	<g>
		<g>
			<path class="st1" d="M128,148.9c-2.5,0.8-5.1,1.5-7.6,2.3c-1.8,0.6-1.1,3.5,0.8,2.9c2.5-0.8,5.1-1.5,7.6-2.3
				C130.7,151.2,129.9,148.3,128,148.9L128,148.9z"/>
		</g>
	</g>
	<g>
		<g>
			<path class="st1" d="M109.8,156.6c-1.3,0.5-2.5,1-3.8,1.5c-0.8,0.3-1.3,1-1,1.8c0.2,0.7,1.1,1.4,1.8,1c1.3-0.5,2.5-1,3.8-1.5
				c0.8-0.3,1.3-1,1-1.8C111.4,156.9,110.5,156.3,109.8,156.6L109.8,156.6z"/>
		</g>
	</g>
	<g>
		<g>
			<path class="st1" d="M99.5,159.6c-0.3,0-0.5,0-0.8,0c-0.8,0-1.5,0.7-1.5,1.5c0,0.8,0.7,1.5,1.5,1.5c0.3,0,0.5,0,0.8,0
				c0.8,0,1.5-0.7,1.5-1.5C100.9,160.3,100.3,159.6,99.5,159.6L99.5,159.6z"/>
		</g>
	</g>
	<g>
		<g>
			<path class="st1" d="M96.4,155.2C96.5,155.4,96.5,155.4,96.4,155.2C96.3,155.1,96.3,155.1,96.4,155.2c0,0-0.1-0.1-0.1-0.1
				c0.1,0.2,0.1,0.2,0,0c-0.1-0.3,0,0.2,0-0.1c0-0.2,0-0.2,0,0c0.1-0.2,0-0.2,0,0c0.3-0.7,0.2-1.6-0.5-2.1c-0.6-0.4-1.7-0.2-2.1,0.5
				c-0.7,1.6-0.3,3.4,1.2,4.4c0.7,0.4,1.7,0.1,2.1-0.5C97.4,156.6,97.1,155.7,96.4,155.2L96.4,155.2z"/>
		</g>
	</g>
	<g>
		<g>
			<path class="st1" d="M93.9,145.5c-0.3-1-0.5-2-0.8-3c-0.5-1.9-3.4-1.1-2.9,0.8c0.3,1,0.5,2,0.8,3
				C91.5,148.1,94.4,147.3,93.9,145.5L93.9,145.5z"/>
		</g>
	</g>
	<g>
		<g>
			<path class="st1" d="M86.1,131c-0.3-0.3-0.5-0.5-0.8-0.8c-0.6-0.6-1.5-0.6-2.1,0c-0.6,0.6-0.6,1.5,0,2.1c0.3,0.3,0.5,0.5,0.8,0.8
				c0.6,0.6,1.5,0.6,2.1,0C86.6,132.6,86.6,131.6,86.1,131L86.1,131z"/>
		</g>
	</g>
	<g>
		<g>
			<path class="st1" d="M70.5,127.5c-1.3,0-2.5,0-3.8,0c-1.9,0-1.9,3,0,3c1.3,0,2.5,0,3.8,0C72.4,130.5,72.4,127.5,70.5,127.5
				L70.5,127.5z"/>
		</g>
	</g>
	<g>
		<g>
			<path class="st1" d="M55.3,134.6c-1,0.5-2,1-3,1.5c-0.7,0.4-0.9,1.4-0.5,2.1c0.4,0.7,1.3,0.9,2.1,0.5c1-0.5,2-1,3-1.5
				c0.7-0.4,0.9-1.4,0.5-2.1C56.9,134.4,56,134.2,55.3,134.6L55.3,134.6z"/>
		</g>
	</g>
	<g>
		<g>
			<path class="st1" d="M40.5,145.5c-0.5,0.5-1,1-1.5,1.5c-0.6,0.6-0.6,1.5,0,2.1c0.6,0.6,1.5,0.6,2.1,0c0.5-0.5,1-1,1.5-1.5
				c0.6-0.6,0.6-1.5,0-2.1C42,144.9,41.1,144.9,40.5,145.5L40.5,145.5z"/>
		</g>
	</g>
	<g>
		<g>
			<path class="st1" d="M31.7,161.8c0,0.3,0,0.5,0,0.8c0,0.8,0.7,1.5,1.5,1.5c0.8,0,1.5-0.7,1.5-1.5c0-0.3,0-0.5,0-0.8
				c0-0.8-0.7-1.5-1.5-1.5C32.3,160.4,31.7,161,31.7,161.8L31.7,161.8z"/>
		</g>
	</g>
	<g>
		<g>
			<path class="st1" d="M32.4,170.2c0,0.2,0,0.3,0,0.5c0,1.9,3,1.9,3,0c0-0.2,0-0.3,0-0.5C35.4,168.3,32.4,168.3,32.4,170.2
				c0,0.2,0,0.3,0,0.5c0,1.9,3,1.9,3,0c0-0.2,0-0.3,0-0.5C35.4,168.3,32.4,168.3,32.4,170.2L32.4,170.2z"/>
		</g>
	</g>
	<g>
		<g>
			<path class="st1" d="M39.5,171.2c0.5-0.5,1-1,1.5-1.5c0.6-0.6,0.6-1.5,0-2.1c-0.6-0.6-1.5-0.6-2.1,0c-0.5,0.5-1,1-1.5,1.5
				c-0.6,0.6-0.6,1.5,0,2.1C38,171.8,38.9,171.8,39.5,171.2L39.5,171.2z"/>
		</g>
	</g>
	<g>
		<g>
			<path class="st1" d="M46.4,167.4c1-0.8,2-1.6,3-2.4c0.6-0.5,0.5-1.6,0-2.1c-0.6-0.6-1.5-0.5-2.1,0c-1,0.8-2,1.6-3,2.4
				c-0.6,0.5-0.5,1.6,0,2.1C44.9,168,45.7,167.9,46.4,167.4L46.4,167.4z"/>
		</g>
	</g>
	<g>
		<g>
			<path class="st1" d="M53.7,163.1c1-0.5,2-1,3-1.5c0.7-0.4,0.9-1.4,0.5-2.1c-0.4-0.7-1.3-0.9-2.1-0.5c-1,0.5-2,1-3,1.5
				c-0.7,0.4-0.9,1.4-0.5,2.1C52.1,163.3,53,163.5,53.7,163.1L53.7,163.1z"/>
		</g>
	</g>
	<g>
		<g>
			<path class="st1" d="M61,162.5c1.3-0.5,2.5-1,3.8-1.5c0.8-0.3,1.3-1,1-1.8c-0.2-0.7-1.1-1.4-1.8-1c-1.3,0.5-2.5,1-3.8,1.5
				c-0.8,0.3-1.3,1-1,1.8C59.4,162.2,60.2,162.8,61,162.5L61,162.5z"/>
		</g>
	</g>
	<g>
		<g>
			<path class="st1" d="M70.9,161.8C71.1,161.7,71,161.7,70.9,161.8c-0.1,0-0.1,0-0.2,0c0.1,0,0.2,0,0.1,0c0,0-0.2-0.2-0.1-0.1
				c0.1,0.1-0.1-0.1-0.1-0.2c0.3,0.8,1,1.3,1.8,1c0.7-0.2,1.3-1.1,1-1.8c-0.5-1.4-1.9-2.2-3.3-1.8c-0.8,0.2-1.3,1.1-1,1.8
				C69.3,161.5,70.1,162,70.9,161.8L70.9,161.8z"/>
		</g>
	</g>
	<g>
		<g>
			<path class="st1" d="M80,183.6c0.5,0.5,1,1,1.6,1.5c0.6,0.6,1.5,0.6,2.1,0c0.6-0.6,0.6-1.6,0-2.1c-0.5-0.5-1-1-1.6-1.5
				c-0.6-0.6-1.5-0.6-2.1,0C79.5,182,79.4,183,80,183.6L80,183.6z"/>
		</g>
	</g>
	<g>
		<g>
			<path class="st1" d="M71.6,171.8c-1.1,2,0,4.7,2.3,5.3c0.8,0.2,1.6-0.2,1.8-1c0.2-0.8-0.3-1.7-1-1.8c-0.3-0.1-0.3-0.1-0.4-0.3
				c-0.1-0.1-0.1-0.2-0.1-0.3c0-0.1,0-0.2,0,0c0-0.3-0.1,0.1,0.1-0.2c0.4-0.7,0.2-1.6-0.5-2.1C73,170.9,72,171.1,71.6,171.8
				L71.6,171.8z"/>
		</g>
	</g>
	<g>
		<g>
			<path class="st1" d="M86.5,190.8c1.9,0,1.9-3,0-3C84.6,187.8,84.6,190.8,86.5,190.8L86.5,190.8z"/>
		</g>
	</g>
	<g>
		<g>
			<path class="st1" d="M85.4,190.4c0.8,0.7,1.6,1.5,2.3,2.2c0.6,0.6,1.5,0.6,2.1,0c0.6-0.6,0.6-1.6,0-2.1c-0.8-0.7-1.6-1.5-2.3-2.2
				c-0.6-0.6-1.5-0.6-2.1,0C84.8,188.9,84.8,189.9,85.4,190.4L85.4,190.4z"/>
		</g>
	</g>
	<g>
		<g>
			<path class="st1" d="M93.9,198.7c0.8,1,1.6,2,2.4,3c0.5,0.6,1.6,0.5,2.1,0c0.6-0.6,0.5-1.5,0-2.1c-0.8-1-1.6-2-2.4-3
				c-0.5-0.6-1.6-0.5-2.1,0C93.3,197.2,93.4,198,93.9,198.7L93.9,198.7z"/>
		</g>
	</g>
	<g>
		<g>
			<path class="st1" d="M102.5,210.6c0,2.4,2.2,4.6,4.6,4.4c0.8-0.1,1.5-0.6,1.5-1.5c0-0.8-0.7-1.6-1.5-1.5
				c-0.9,0.1-1.6-0.6-1.6-1.4C105.5,208.7,102.5,208.7,102.5,210.6L102.5,210.6z"/>
		</g>
	</g>
	<g>
		<g>
			<path class="st1" d="M115.1,226.2c1.3,1.5,2.6,3,3.8,4.6c1.2,1.5,3.4-0.7,2.1-2.1c-1.3-1.5-2.6-3-3.8-4.6
				C116,222.6,113.9,224.8,115.1,226.2L115.1,226.2z"/>
		</g>
	</g>
	<g>
		<g>
			<path class="st1" d="M122.4,237.7c0.8,2,1.5,4.1,2.3,6.1c0.7,1.8,3.6,1,2.9-0.8c-0.8-2-1.5-4.1-2.3-6.1
				C124.6,235.1,121.7,235.9,122.4,237.7L122.4,237.7z"/>
		</g>
	</g>
	<g>
		<g>
			<path class="st1" d="M130.9,254.1c1.1,1.7,2.1,3.5,3.2,5.2c1,1.6,3.6,0.1,2.6-1.5c-1.1-1.7-2.1-3.5-3.2-5.2
				C132.5,250.9,129.9,252.4,130.9,254.1L130.9,254.1z"/>
		</g>
	</g>
	<g>
		<g>
			<path class="st1" d="M141.8,269.7c1.3,1.5,2.5,3.1,3.8,4.6c0.5,0.6,1.6,0.5,2.1,0c0.6-0.6,0.5-1.5,0-2.1
				c-1.3-1.5-2.5-3.1-3.8-4.6c-0.5-0.6-1.6-0.5-2.1,0C141.2,268.1,141.3,269,141.8,269.7L141.8,269.7z"/>
		</g>
	</g>
	<g>
		<g>
			<path class="st1" d="M153,285.7c0.3,1.3,0.5,2.5,0.8,3.8c0.4,1.9,3.3,1.1,2.9-0.8c-0.3-1.3-0.5-2.5-0.8-3.8
				C155.5,283,152.6,283.8,153,285.7L153,285.7z"/>
		</g>
	</g>
	<g>
		<g>
			<path class="st1" d="M155.2,302.9c0,1-0.4,2-1.1,2.7c-1.3,1.4,0.8,3.5,2.1,2.1c1.3-1.3,1.9-3,2-4.9
				C158.3,300.9,155.3,300.9,155.2,302.9L155.2,302.9z"/>
		</g>
	</g>
	<g>
		<g>
			<path class="st1" d="M145.6,311.3c-0.8,0.2-1.7-0.1-2.1-0.8c-1-1.6-3.6-0.1-2.6,1.5c1.2,1.8,3.4,2.7,5.5,2.1
				C148.2,313.7,147.4,310.8,145.6,311.3L145.6,311.3z"/>
		</g>
	</g>
	<g>
		<g>
			<path class="st1" d="M140.6,299.8c0-1,0-2,0-3c0-1.9-3-1.9-3,0c0,1,0,2,0,3C137.6,301.8,140.6,301.8,140.6,299.8L140.6,299.8z"/>
		</g>
	</g>
	<g>
		<g>
			<path class="st1" d="M145.2,289.7c0.5-0.3,1-0.5,1.5-0.8c0.7-0.4,0.9-1.4,0.5-2.1c-0.4-0.7-1.3-0.9-2.1-0.5
				c-0.5,0.3-1,0.5-1.5,0.8c-0.7,0.4-0.9,1.4-0.5,2.1C143.6,289.9,144.5,290,145.2,289.7L145.2,289.7z"/>
		</g>
	</g>
	<g>
		<g>
			<path class="st1" d="M160.5,289.1c1,0,2,0.4,2.7,1.1c1.4,1.3,3.5-0.8,2.1-2.1c-1.3-1.3-3-1.9-4.9-2
				C158.5,286,158.5,289,160.5,289.1L160.5,289.1z"/>
		</g>
	</g>
	<g>
		<g>
			<path class="st1" d="M170,302.8c0.7,1,1.5,2.1,2.2,3.1c0.5,0.7,1.3,1,2.1,0.5c0.7-0.4,1-1.4,0.5-2.1c-0.7-1-1.5-2.1-2.2-3.1
				c-0.5-0.7-1.3-1-2.1-0.5C169.9,301.1,169.5,302.1,170,302.8L170,302.8z"/>
		</g>
	</g>
	<g>
		<g>
			<path class="st1" d="M169.3,320.9c-1,1-2,2-3,3c-1.4,1.4,0.8,3.5,2.1,2.1c1-1,2-2,3-3C172.8,321.6,170.7,319.5,169.3,320.9
				L169.3,320.9z"/>
		</g>
	</g>
	<g>
		<g>
			<path class="st1" d="M158.2,333.6c-2.4,1.8-3.8,4.4-3.7,7.4c0.1,1.9,3.1,1.9,3,0c-0.1-1.9,0.7-3.7,2.2-4.8
				C161.2,335,159.7,332.4,158.2,333.6L158.2,333.6z"/>
		</g>
	</g>
	<g>
		<g>
			<path class="st1" d="M153.8,359.3c0.8,1.8,1.5,3.6,2.3,5.3c0.3,0.8,1.4,0.9,2.1,0.5c0.8-0.4,0.9-1.3,0.5-2.1
				c-0.8-1.8-1.5-3.6-2.3-5.3c-0.3-0.8-1.4-0.9-2.1-0.5C153.6,357.7,153.5,358.6,153.8,359.3L153.8,359.3z"/>
		</g>
	</g>
	<g>
		<g>
			<path class="st1" d="M162,375.3c1.3,0,2.5,0,3.8,0c1.9,0,1.9-3,0-3c-1.3,0-2.5,0-3.8,0C160.1,372.3,160.1,375.3,162,375.3
				L162,375.3z"/>
		</g>
	</g>
	<g>
		<g>
			<path class="st1" d="M173.4,380.6c0.4,0,0.7,0,1,0.1c0.4,0.2,0.5,0.3,0.7,0.7c1,1.7,3.6,0.2,2.6-1.5c-0.9-1.5-2.6-2.5-4.3-2.3
				c-0.8,0.1-1.5,0.6-1.5,1.5C171.9,379.8,172.6,380.7,173.4,380.6L173.4,380.6z"/>
		</g>
	</g>
	<g>
		<g>
			<path class="st1" d="M179.8,389.4c-0.3,0.8-0.5,1.5-0.8,2.3c-0.2,0.7,0.3,1.7,1,1.8c0.8,0.2,1.6-0.3,1.8-1
				c0.3-0.8,0.5-1.5,0.8-2.3c0.2-0.7-0.3-1.7-1-1.8C180.8,388.2,180.1,388.6,179.8,389.4L179.8,389.4z"/>
		</g>
	</g>
	<g>
		<g>
			<path class="st1" d="M173.4,399.4c0.3,1.3,0.5,2.5,0.8,3.8c0.4,1.9,3.3,1.1,2.9-0.8c-0.3-1.3-0.5-2.5-0.8-3.8
				C175.9,396.7,173,397.5,173.4,399.4L173.4,399.4z"/>
		</g>
	</g>
</g>
</svg>
