<?xml version="1.0" encoding="utf-8"?>
<!-- Generator: Adobe Illustrator 19.2.1, SVG Export Plug-In . SVG Version: 6.00 Build 0)  -->
<svg version="1.1" xmlns="http://www.w3.org/2000/svg" xmlns:xlink="http://www.w3.org/1999/xlink" x="0px" y="0px"
	 viewBox="0 0 643 635" style="enable-background:new 0 0 643 635;" xml:space="preserve">
<style type="text/css">
	.st0{fill:#E01B7E;}
	.st1{fill:#FCFCFC;stroke:#FCFCFC;stroke-width:3;stroke-miterlimit:10;}
	.st2{fill:none;stroke:#FCFCFC;stroke-width:3;stroke-miterlimit:10;}
	.st3{fill:#09BBCE;}
	.st4{fill:#FCFCFC;}
	.st5{fill:#EDF233;}
</style>
<g id="Layer_1">
	<g>
		<g>
			<path class="st0" d="M276.5,300.6c-21.7-27.9-59.7-38.2-93.6-32.3c-33.4,5.8-63.5,27.4-81.2,56.1
				c-18.5,29.9-21.8,67.4-11.1,100.7c5.5,16.9,14.3,32.6,26.3,45.8c13.1,14.4,29.5,25.4,45.8,36c17.3,11.3,39.6,22.8,48.3,42.7
				c4.4,10.2,5.1,22,4.9,33c-0.2,9.8-1.8,20-8.8,27.4c-5.3,5.6,3.2,14.1,8.5,8.5c12.4-13,13.2-32,11.8-48.9
				c-1.6-19.6-9-35.7-23.9-48.6c-28.2-24.4-65.4-38-87-69.8c-19.2-28.3-25.4-65-15-97.7c9.8-30.9,34.9-56.8,65.2-68.2
				c34.8-13.1,77.8-6.6,101.4,23.9C272.8,315.2,281.2,306.7,276.5,300.6L276.5,300.6z"/>
		</g>
	</g>
	<g>
		<g>
			<path class="st0" d="M217.8,619.1c31.9-32.1,74.2-50.7,109.4-78.7c18.5-14.7,35.4-31.3,51.7-48.4c16.2-16.9,33.6-33.7,46.8-53
				c6.6-9.6,11.5-20.2,15.7-31.1c4.3-11.3,8.2-22.9,10.3-34.8c3.6-20.4,0.9-41-8-59.7c-18-38.1-59.6-59.5-101.1-53.5
				c-24.6,3.5-46.1,17.5-64.4,33.7c-17.2,15.1-31.6,34-37.5,56.5c-2,7.5,9.6,10.7,11.6,3.2c5-18.9,16.7-34.8,30.9-48
				c14.7-13.7,32.2-26.4,51.9-31.6c37.7-10,78,7.4,96.3,41.8c9,17,12.1,36.6,8.6,55.5c-4,21.5-12.2,44-24.6,62.1
				c-12.5,18.2-29.1,34-44.3,49.9c-15.3,16-31.1,31.5-48.1,45.6c-36.2,29.7-80.4,48.6-113.6,82.1
				C203.8,616.1,212.3,624.6,217.8,619.1L217.8,619.1z"/>
		</g>
	</g>
</g>
<g id="Layer_4">
	<path class="st1" d="M106,315c-2-3.1-12.7-0.8-20,4c-1.2,0.8-7.1,4.8-11,13c-1.4,2.9-3.4,8.2-3,23c0.2,8.1,0.4,17.2,3,27
		c5.4,20.5,18.3,33.3,37,52c8.5,8.5,16.8,16.6,30,25c5.6,3.6,16.7,10.1,37,17c15,5.1,25.8,7.3,58,13c53.3,9.4,58.4,9.6,74,14
		c15.8,4.4,32.9,9.2,47,17c41.1,22.8,56.8,72,63,101c8-20,16-40,24-60c12.7,4.7,25.3,9.3,38,14c-11.3-33.8-25.3-59.1-36-76
		c-5-7.9-11.1-17.5-21-29c-12.7-14.9-33.6-39.4-65-49c-3.5-1.1-9-2.4-20-5c-16.9-4-28.9-6.4-37-8c-10.1-2-33.8-6.8-58-13
		c-37.5-9.6-31.8-11.1-53-15c-20.2-3.7-31.2-3.3-50-11c-8.3-3.4-13.6-6.5-23-12c-15.4-9-23.1-13.6-24-20
		C94.5,326.7,108.6,318.9,106,315z"/>
	<path class="st2" d="M61,449"/>
</g>
<g id="Layer_3">
	<g>
		<g>
			<g>
				<path d="M151.5,393.5c6.1-4.8,13.4,1.3,19.2,3.6c5,2.1,10.3,3,15.8,3.2c1.9,0.1,1.9-2.9,0-3c-8.7-0.2-14.9-3.5-22.7-6.9
					c-4.9-2.1-10-2.5-14.4,0.9C147.9,392.5,150,394.6,151.5,393.5L151.5,393.5z"/>
			</g>
		</g>
		<g>
			<g>
				<path d="M166.9,395.6c-3.8,16.9-7.6,33.8-11.4,50.8c-0.4,1.9,2.5,2.7,2.9,0.8c3.8-16.9,7.6-33.8,11.4-50.8
					C170.2,394.5,167.3,393.7,166.9,395.6L166.9,395.6z"/>
			</g>
		</g>
		<g>
			<g>
				<path d="M142.1,449.1c7.3-3.1,14.9-1.4,22,1.5c3.8,1.6,8.2,4.8,11.9,1.6c1.5-1.3-0.7-3.4-2.1-2.1c-2,1.7-6.9-1.6-9-2.4
					c-2.9-1.2-5.9-2.2-9.1-2.8c-5-0.9-9.8-0.7-14.6,1.3C139.6,446.9,140.3,449.8,142.1,449.1L142.1,449.1z"/>
			</g>
		</g>
		<g>
			<g>
				<path d="M163.3,425c10.6,0.8,21.1,2.4,31.5,4.8c1.9,0.4,2.7-2.5,0.8-2.9c-10.6-2.5-21.4-4.1-32.3-4.9
					C161.3,421.9,161.3,424.9,163.3,425L163.3,425z"/>
			</g>
		</g>
		<g>
			<g>
				<path d="M199.9,400.9c-3.6,17.9-7.3,35.8-10.9,53.8c-0.4,1.9,2.5,2.7,2.9,0.8c3.6-17.9,7.3-35.8,10.9-53.8
					C203.2,399.8,200.3,399,199.9,400.9L199.9,400.9z"/>
			</g>
		</g>
		<g>
			<g>
				<path d="M192,402.2c4.1-2.7,8.3,0.4,12.2,2c3,1.2,5.8,1.8,8.9,0.7c1.8-0.6,1-3.5-0.8-2.9c-7.5,2.6-14.2-7.4-21.8-2.4
					C188.9,400.7,190.4,403.3,192,402.2L192,402.2z"/>
			</g>
		</g>
		<g>
			<g>
				<path d="M179.6,457.8c8.2-2.4,16.4-1.1,23.5,3.7c1.6,1.1,3.1-1.5,1.5-2.6c-7.7-5.2-16.9-6.6-25.8-4
					C177,455.5,177.7,458.4,179.6,457.8L179.6,457.8z"/>
			</g>
		</g>
		<g>
			<g>
				<path d="M221.6,405.3c-0.7,3.5-1.4,7-2.1,10.5c-0.4,1.9,2.5,2.7,2.9,0.8c0.7-3.5,1.4-7,2.1-10.5
					C224.9,404.2,222,403.4,221.6,405.3L221.6,405.3z"/>
			</g>
		</g>
		<g>
			<g>
				<path d="M223.4,407.3c11,2.2,22,4.5,33,6.7c1.9,0.4,2.7-2.5,0.8-2.9c-11-2.2-22-4.5-33-6.7C222.3,404,221.5,406.9,223.4,407.3
					L223.4,407.3z"/>
			</g>
		</g>
		<g>
			<g>
				<path d="M256.6,413.1c-0.7,3.7-1.5,7.3-2.2,11c-0.4,1.9,2.5,2.7,2.9,0.8c0.8-4.1,1.7-8.2,2.5-12.4c0.4-1.9-2.5-2.7-2.9-0.8
					c-0.8,4.1-1.7,8.2-2.5,12.4c1,0.3,1.9,0.5,2.9,0.8c0.7-3.7,1.5-7.3,2.2-11C259.9,412,257,411.2,256.6,413.1L256.6,413.1z"/>
			</g>
		</g>
		<g>
			<g>
				<path d="M239.2,408.9c-3.7,18.2-7.4,36.3-11.1,54.5c-0.4,1.9,2.5,2.7,2.9,0.8c3.7-18.2,7.4-36.3,11.1-54.5
					C242.5,407.8,239.6,407,239.2,408.9L239.2,408.9z"/>
			</g>
		</g>
		<g>
			<g>
				<path d="M217,464.1c8.4,1.7,16.8,3.4,25.3,5.1c1.9,0.4,2.7-2.5,0.8-2.9c-8.4-1.7-16.8-3.4-25.3-5.1
					C215.9,460.9,215.1,463.8,217,464.1L217,464.1z"/>
			</g>
		</g>
		<g>
			<g>
				<path d="M255.4,472.7c4.7,0.9,9.4,1.9,14,2.8c1.9,0.4,2.7-2.5,0.8-2.9c-4.7-0.9-9.4-1.9-14-2.8
					C254.3,469.4,253.5,472.3,255.4,472.7L255.4,472.7z"/>
			</g>
		</g>
		<g>
			<g>
				<path d="M263.7,472.2c3.6-17.9,7.3-35.8,10.9-53.8c0.4-1.9-2.5-2.7-2.9-0.8c-3.6,17.9-7.3,35.8-10.9,53.8
					C260.4,473.3,263.3,474.1,263.7,472.2L263.7,472.2z"/>
			</g>
		</g>
		<g>
			<g>
				<path d="M266.3,417.5c2.4,0.2,4.7,0.7,6.9,1.8c1.7,0.8,3.3-1.8,1.5-2.6c-2.7-1.2-5.5-2-8.4-2.2
					C264.4,414.4,264.4,417.4,266.3,417.5L266.3,417.5z"/>
			</g>
		</g>
		<g>
			<g>
				<path d="M271,419.3c4.1,11.9,8.3,23.7,12.4,35.6c0.6,1.8,3.5,1,2.9-0.8c-4.1-11.9-8.3-23.7-12.4-35.6
					C273.3,416.7,270.4,417.5,271,419.3L271,419.3z"/>
			</g>
		</g>
		<g>
			<g>
				<path d="M286.2,455.5c8.2-9.3,15.5-19.3,21.9-29.9c1-1.7-1.6-3.2-2.6-1.5c-6.2,10.4-13.3,20.2-21.4,29.3
					C282.8,454.8,285,457,286.2,455.5L286.2,455.5z"/>
			</g>
		</g>
		<g>
			<g>
				<path d="M305.7,426.2c1.9,0.4,3.7,0.8,5.6,1.1c1.9,0.4,2.7-2.5,0.8-2.9c-1.9-0.4-3.7-0.8-5.6-1.1
					C304.7,422.9,303.9,425.8,305.7,426.2L305.7,426.2z"/>
			</g>
		</g>
		<g>
			<g>
				<path d="M305.4,424.5c-3.7,18.4-7.5,36.8-11.2,55.2c-0.4,1.9,2.5,2.7,2.9,0.8c3.7-18.4,7.5-36.8,11.2-55.2
					C308.7,423.4,305.8,422.6,305.4,424.5L305.4,424.5z"/>
			</g>
		</g>
		<g>
			<g>
				<path d="M290.3,480.5c3.7,0.8,7.5,1.5,11.2,2.3c1.9,0.4,2.7-2.5,0.8-2.9c-3.7-0.8-7.5-1.5-11.2-2.3
					C289.3,477.2,288.4,480.1,290.3,480.5L290.3,480.5z"/>
			</g>
		</g>
		<g>
			<g>
				<path d="M227.9,435.3c1.7,2.1,3.4,4.1,5,6.2c0.3,0.4,1,0.6,1.5,0.4c2.7-1.1,5.3-2.2,8-3.2c1.8-0.7,1-3.6-0.8-2.9
					c-2.7,1.1-5.3,2.2-8,3.2c0.5,0.1,1,0.3,1.5,0.4c-1.7-2.1-3.4-4.1-5-6.2C228.8,431.7,226.7,433.8,227.9,435.3L227.9,435.3z"/>
			</g>
		</g>
		<g>
			<g>
				<path d="M321.3,430.5c4.1,0.1,8.1,1,11.9,2.6c1.8,0.7,3.3-1.8,1.5-2.6c-4.3-1.8-8.7-2.8-13.4-3
					C319.4,427.4,319.4,430.4,321.3,430.5L321.3,430.5z"/>
			</g>
		</g>
		<g>
			<g>
				<path d="M325.5,430c-3.6,17.9-7.3,35.8-10.9,53.8c-0.4,1.9,2.5,2.7,2.9,0.8c3.6-17.9,7.3-35.8,10.9-53.8
					C328.7,428.9,325.8,428.1,325.5,430L325.5,430z"/>
			</g>
		</g>
		<g>
			<g>
				<path d="M307.7,484.8c11.2,2.3,22.4,4.6,33.7,6.8c1.9,0.4,2.7-2.5,0.8-2.9c-11.2-2.3-22.4-4.6-33.7-6.8
					C306.6,481.5,305.8,484.4,307.7,484.8L307.7,484.8z"/>
			</g>
		</g>
		<g>
			<g>
				<path d="M342.1,483.7c-0.9,4.2-1.7,8.4-2.6,12.6c-0.4,1.9,2.5,2.7,2.9,0.8c0.9-4.2,1.7-8.4,2.6-12.6
					C345.3,482.6,342.5,481.8,342.1,483.7L342.1,483.7z"/>
			</g>
		</g>
		<g>
			<g>
				<path d="M315.8,455.2c0.9,2,1.8,4.1,2.7,6.1c0.3,0.7,1.4,0.9,2.1,0.5c2.6-1.5,5.2-3,7.7-4.5c1.7-1,0.2-3.6-1.5-2.6
					c-2.6,1.5-5.2,3-7.7,4.5c0.7,0.2,1.4,0.4,2.1,0.5c-0.9-2-1.8-4.1-2.7-6.1C317.6,451.9,315,453.5,315.8,455.2L315.8,455.2z"/>
			</g>
		</g>
	</g>
</g>
<g id="Layer_5">
	<g>
		<g>
			<path class="st3" d="M418.9,168.3c-17.2,12.9-11.3,40.7,10.6,43.9c11.4,1.7,23.2-3.2,33-8.6c9.4-5.1,17.6-12,21.6-22.1
				c0.7-1.8-2.2-2.6-2.9-0.8c-3.4,8.6-10.4,14.6-18.3,19.2c-7.7,4.5-16.4,8.3-25.3,9.3c-9.8,1.1-19.3-2.6-24-11.7
				c-4.7-9.3-1.5-20.6,6.7-26.7C422,169.7,420.5,167.1,418.9,168.3L418.9,168.3z"/>
		</g>
	</g>
	<g>
		<g>
			<path class="st3" d="M417.9,189.6c0.6-0.3,2.3-0.6,2.3,0.4c0,0.6-0.9,1-1.3,0.9c-0.6-0.1-1-0.8-1.1-1.3c-1-3.5,4.3-4,6.5-3.7
				c1.9,0.3,2.7-2.6,0.8-2.9c-3.5-0.5-7.4-0.1-9.4,3.1c-1.6,2.5-0.9,6.5,2.1,7.5c2.7,1,6.2-1.5,5.4-4.5c-0.7-2.9-4.4-3.6-6.7-2.2
				C414.7,188,416.3,190.6,417.9,189.6L417.9,189.6z"/>
		</g>
	</g>
	<g>
		<g>
			<path class="st3" d="M411.5,198c-2.7,0.6-5.3,1.1-8,1.7c-1.1,0.2-1.5,1.8-0.7,2.5c2.5,2.2,5.3,3.6,8.5,4.3
				c-0.3-0.7-0.6-1.5-0.9-2.2c-1.4,2.3-3,4.2-5.1,5.9c-1,0.9-0.2,2.6,1.1,2.6c5.2,0,10-1.2,14.6-3.8c1.7-0.9,0.2-3.5-1.5-2.6
				c-4.1,2.3-8.4,3.4-13.1,3.3c0.4,0.9,0.7,1.7,1.1,2.6c2.2-1.9,4-4.1,5.6-6.6c0.5-0.8,0.1-2-0.9-2.2c-2.8-0.6-5.1-1.6-7.2-3.5
				c-0.2,0.8-0.4,1.7-0.7,2.5c2.7-0.6,5.3-1.1,8-1.7C414.2,200.5,413.4,197.6,411.5,198L411.5,198z"/>
		</g>
	</g>
	<g>
		<g>
			<path class="st3" d="M436.7,115.6c-11.5-4.8-13.5-20.6-12.8-31.4C424.6,73,428.8,62,435.4,53c14.3-19.6,38.7-28.6,62.4-27.8
				c-0.3-0.9-0.5-1.9-0.8-2.8c-10.2,7-19.9,16-22.6,28.6c-1.1,5.4-0.9,11,1.1,16.1c2.5,6.3,7.4,11.3,8.5,18.2
				c0.3,1.9,3.2,1.1,2.9-0.8c-0.7-4.6-3-8.4-5.4-12.3c-3.4-5.7-5.5-11.4-4.6-18.2c1.7-12.8,11.4-22.1,21.6-29
				c1.2-0.8,0.8-2.7-0.8-2.8c-26.3-0.9-53.4,10.1-67.6,33.1c-6.5,10.6-10.1,23.2-9.4,35.7c0.6,10.8,4.2,23,15,27.5
				C437.7,119.2,438.4,116.3,436.7,115.6L436.7,115.6z"/>
		</g>
	</g>
	<g>
		<g>
			<path class="st3" d="M430,162.8c7.4-45.1,52-68.4,94.1-70.8c1.9-0.1,1.9-3.1,0-3c-23,1.3-46.2,7.6-64.8,21.7
				c-16.5,12.5-28.7,30.6-32.1,51.3C426.8,163.9,429.7,164.7,430,162.8L430,162.8z"/>
		</g>
	</g>
	<g>
		<g>
			<path class="st3" d="M455,171.7c14.6,29.2,48.3,40.9,79.2,39c17.7-1.1,35.6-5.5,52.1-12.1c13.4-5.4,26-13.2,33.3-26
				c0.6-1-0.4-2.7-1.7-2.2c-11.6,4.5-23.6,8.2-35.8,10.7c-6.9,1.5-14.2,2.7-21.1,0.6c-5.6-1.7-10.4-5.3-14.5-9.4
				c-13.1-13.1-22-34.5-42.9-36.1c-1.9-0.2-1.9,2.8,0,3c22.9,1.8,30.9,29.6,47.8,41.2c9.1,6.2,19.2,6.1,29.7,4
				c12.9-2.6,25.5-6.4,37.7-11.1c-0.6-0.7-1.1-1.5-1.7-2.2c-7.3,12.8-20.2,20.3-33.6,25.5c-15.6,6-32.4,10.2-49.2,11.2
				c-29.9,1.8-62.5-9.2-76.7-37.6C456.7,168.5,454.2,170,455,171.7L455,171.7z"/>
		</g>
	</g>
	<g>
		<g>
			<path class="st3" d="M529.6,90.2c11.5-24,21.8-48.5,30.9-73.5c-1-0.1-2-0.3-2.9-0.4c-0.2,25.1-2.8,50-7.7,74.5
				c-0.3,1.4,1.4,2.6,2.5,1.5c19.6-21.6,43.5-42.8,74.3-43.7c-0.1-1-0.3-2-0.4-2.9c-10.1,2.5-18.3,9.7-26.3,16
				c-9.4,7.3-18.4,15.1-27.1,23.2c-4.2,4-8.4,8-12.4,12.1c-3.1,3.1-6.5,6.2-8,10.4c-1.9,5.4-1.8,11.1-4.3,16.5
				c-2.5,5.2-6.2,9.6-10.8,13.1c-1.5,1.1,0,3.7,1.5,2.6c6.8-5,11.9-11.9,14.2-20.1c1.7-6.1,1.5-11.7,6-16.7c3.8-4.2,7.9-8.1,12-12
				c8.4-8,17-15.7,26-23c8.9-7.2,18.7-16.4,30-19.2c1.6-0.4,1.3-3-0.4-2.9c-31.6,0.9-56.2,22.3-76.4,44.6c0.8,0.5,1.7,1,2.5,1.5
				c5-24.8,7.6-50,7.8-75.3c0-1.8-2.4-1.9-2.9-0.4c-9,24.7-19.2,49-30.6,72.8C526.2,90.4,528.8,91.9,529.6,90.2L529.6,90.2z"/>
		</g>
	</g>
	<g>
		<g>
			<path class="st3" d="M555.5,71.7c3.2-1.1,6.4-2.3,9.6-3.4c-0.6-0.5-1.3-1-1.9-1.4c-0.5,4-1,8-1.6,12c-0.2,1.9,2.8,1.9,3,0
				c0.5-4,1-8,1.6-12c0.1-0.9-1.1-1.7-1.9-1.4c-3.2,1.1-6.4,2.3-9.6,3.4C552.9,69.4,553.7,72.3,555.5,71.7L555.5,71.7z"/>
		</g>
	</g>
	<g>
		<g>
			<path class="st3" d="M455.2,33.2c-2.7,0.5-4.7,2.7-4.8,5.6c-0.1,3.7,3,6.1,6,7.6c-0.1-0.8-0.2-1.6-0.3-2.4
				c-4.6,4.9-3.6,14.1,4.7,12.9c-0.6-0.7-1.1-1.5-1.7-2.2c-2.7,3.5-5.4,7.8-3.2,12.3c1.8,3.6,5.7,5.1,9.6,5.3c-0.1-1-0.3-2-0.4-2.9
				c-10.3,3.4-7.8,18.2,3.2,17.6c-0.4-0.9-0.7-1.7-1.1-2.6c-2.3,2.2-3.3,5.3-1.7,8.2c0.7,1.2,1.7,2.2,3,2.8c1.4,0.6,5.1,0,5.9,0.9
				c1.3,1.4,3.5-0.7,2.1-2.1c-0.9-0.9-1.1-1-2.3-1.3c-0.5-0.1-1-0.1-1.5,0c-2.9,0.7-4.1-1.4-3.5-6.4c0.9-0.9,0.3-2.6-1.1-2.6
				c-7.5,0.5-9.7-9.3-2.4-11.7c1.6-0.5,1.3-2.9-0.4-2.9c-3.7-0.2-6.6-1.6-6.9-5.5c-0.3-3.2,1.2-5.1,3.1-7.6c0.9-1.2-0.6-2.4-1.7-2.2
				c-4.4-2.4-5-5-1.7-7.8c0.6-0.7,0.6-1.9-0.3-2.4c-3-1-3.6-3.5-1.9-7.7C457.9,35.8,457.1,32.9,455.2,33.2L455.2,33.2z"/>
		</g>
	</g>
	<g>
		<g>
			<path class="st3" d="M500.9,137.8c-2,4-0.3,8.2,3.9,9.8c-0.2-0.8-0.4-1.7-0.7-2.5c-5.5,5.4-3.3,14.1,4.3,15.9
				c-0.2-0.8-0.4-1.7-0.7-2.5c-5.7,6.6-1.9,15.8,6.8,16.5c-0.4-0.8-0.9-1.5-1.3-2.3c-1.9,3.8-1.3,8.1,1.8,11.2
				c3.6,3.6,8.9,3.8,13.6,2.9c-0.6-0.3-1.2-0.7-1.8-1c2.6,7.2,10.6,11,17.8,8.1c-0.6-0.3-1.2-0.7-1.8-1c3,9.4,13.4,6.7,20,3.2
				c-0.7-0.2-1.4-0.4-2.1-0.5c2.3,5.1,7.5,7.5,12.9,6.1c1.9-0.5,1.1-3.4-0.8-2.9c-4.1,1-7.8-0.9-9.5-4.8c-0.3-0.8-1.4-0.9-2.1-0.5
				c-4.5,2.4-13.2,6-15.6-1.4c-0.2-0.7-1.1-1.4-1.8-1c-5.6,2.2-12-0.3-14.1-6c-0.3-0.8-1-1.2-1.8-1c-5.6,1.1-16-1.7-12-9.7
				c0.5-1.1-0.1-2.2-1.3-2.3c-5.9-0.5-8.5-6.9-4.7-11.4c0.7-0.8,0.5-2.2-0.7-2.5c-5.3-1.2-6.9-7-3-10.8c0.9-0.8,0.4-2.1-0.7-2.5
				c-0.7-1.8-1.4-3.6-2.1-5.3C504.3,137.6,501.7,136.1,500.9,137.8L500.9,137.8z"/>
		</g>
	</g>
	<g>
		<g>
			<path class="st3" d="M435.4,212.7c1.9,0,1.9-3,0-3C433.5,209.7,433.5,212.7,435.4,212.7L435.4,212.7z"/>
		</g>
	</g>
	<g>
		<g>
			<path class="st3" d="M437.4,212.1c7.2-11.6,19.5-19,33.2-19.7c1.9-0.1,1.9-3.1,0-3c-14.7,0.8-28,8.7-35.8,21.2
				C433.8,212.2,436.4,213.7,437.4,212.1L437.4,212.1z"/>
		</g>
	</g>
</g>
<g id="Layer_6">
	<g>
		<g>
			<path class="st4" d="M229.7,270.3c16-8.1,33.7-10.9,51.3-13.2c17.4-2.3,34.6-4.9,51.6-9.1c16.1-4,32.4-8.9,47.7-15.7
				c11.9-5.3,23.2-12.9,27.8-25.6c0.6-1.6-2.1-2.7-2.7-1.2c-8.8,20.3-22.9,37.7-41,50.4c-1.6,1.1-0.1,3.7,1.5,2.6
				c18.5-13,33.1-30.7,42.1-51.5c-0.9-0.4-1.8-0.8-2.7-1.2c-5.2,14.4-20.1,21.6-33.5,26.7c-15.9,6.1-32.3,10.9-49,14.6
				c-16.2,3.6-32.7,5.6-49.1,7.9c-15.7,2.2-31.2,5.3-45.4,12.6C226.5,268.6,228,271.1,229.7,270.3L229.7,270.3z"/>
		</g>
	</g>
	<g>
		<path class="st4" d="M400,197c-3.2-7.6-12-10.8-18.8-15.6c-11.3-8-17.5-22-17.7-35.8c-0.2-13.8,5.1-27.4,13.2-38.6
			c-10.4-1-18.4,8.4-24.6,16.8c-4.3-8-6.9-16.8-7.7-25.8c-6,5.5-8.8,13.9-9.2,22.1c-0.4,8.2,1.3,16.3,3,24.3
			c2.4,11.3,4.9,22.9,12,32c11.5,14.8,32.1,18.9,50.9,19.2"/>
		<g>
			<path class="st4" d="M401.2,196.2c-3.1-6.5-9.3-9.9-15.2-13.5c-8.2-5-14.5-11.9-17.9-21c-7.1-18.5-1.2-38.4,9.8-53.9
				c0.7-1-0.3-2.2-1.3-2.3c-11.6-0.6-19.6,9-25.9,17.5c0.9,0,1.7,0,2.6,0c-4.1-7.9-6.6-16.2-7.5-25c-0.1-1.2-1.6-2-2.6-1.1
				c-8.9,8.8-10.6,21.5-9.2,33.5c1.5,12.7,4.2,26.7,9.7,38.4c10.4,21.9,34.9,27.9,57.2,28.3c1.9,0,1.9-3,0-3
				c-20.6-0.4-43.7-5.4-53.9-25.3c-5.2-10.1-7.2-22-9.2-33.1c-2.2-12.7-2.3-26.9,7.5-36.5c-0.9-0.4-1.7-0.7-2.6-1.1
				c0.9,9.3,3.5,18.2,7.9,26.5c0.6,1.1,2,0.8,2.6,0c5.6-7.7,12.8-16.6,23.3-16.1c-0.4-0.8-0.9-1.5-1.3-2.3
				c-10.8,15.3-16.9,34.9-11.1,53.3c2.5,8,7.1,15.5,13.5,20.9c6.9,5.8,16.9,8.6,21,17.2C399.5,199.5,402.1,198,401.2,196.2
				L401.2,196.2z"/>
		</g>
	</g>
	<g>
		<g>
			<path class="st4" d="M243.5,269.9c10.9,6.5,21.4,13.6,31.5,21.2c0.8,0.6,1.5-0.7,0.8-1.3c-10.1-7.6-20.7-14.7-31.5-21.2
				C243.4,268.1,242.6,269.4,243.5,269.9L243.5,269.9z"/>
		</g>
	</g>
	<g>
		<g>
			<path class="st4" d="M256.7,270.5c8.1,6.2,16.2,12.5,24.2,18.7c0.8,0.6,1.5-0.7,0.8-1.3c-8.1-6.2-16.2-12.5-24.2-18.7
				C256.7,268.7,255.9,270,256.7,270.5L256.7,270.5z"/>
		</g>
	</g>
	<g>
		<g>
			<path class="st4" d="M265.9,265.2c6,6.4,12.5,12.2,19.4,17.7c0.8,0.6,1.8-0.5,1.1-1.1c-6.9-5.4-13.4-11.3-19.4-17.7
				C266.3,263.4,265.2,264.5,265.9,265.2L265.9,265.2z"/>
		</g>
	</g>
	<g>
		<g>
			<path class="st4" d="M275.6,263.5c4.4,5.5,9.8,10,16,13.4c0.8,0.5,1.6-0.8,0.8-1.3c-6-3.4-11.3-7.8-15.6-13.2
				C276,261.6,275,262.7,275.6,263.5L275.6,263.5z"/>
		</g>
	</g>
	<g>
		<g>
			<path class="st4" d="M286.2,262.7c3.2,3.9,7.1,7.2,11.6,9.7c0.8,0.5,1.6-0.8,0.8-1.3c-4.3-2.4-8.1-5.6-11.2-9.4
				C286.7,260.9,285.6,262,286.2,262.7L286.2,262.7z"/>
		</g>
	</g>
	<g>
		<g>
			<path class="st4" d="M296.5,259.8c3.7,2.6,7.4,5.3,11.1,7.9c0.8,0.6,1.5-0.7,0.8-1.3c-3.7-2.6-7.4-5.3-11.1-7.9
				C296.5,257.9,295.8,259.2,296.5,259.8L296.5,259.8z"/>
		</g>
	</g>
	<g>
		<g>
			<path class="st4" d="M309.9,258.2c2.9,1.9,5.7,3.8,8.6,5.7c0.8,0.5,1.6-0.8,0.8-1.3c-2.9-1.9-5.7-3.8-8.6-5.7
				C309.8,256.4,309.1,257.7,309.9,258.2L309.9,258.2z"/>
		</g>
	</g>
	<g>
		<g>
			<path class="st4" d="M321.7,255.6c2.3,1.4,4.6,2.8,6.8,4.3c0.8,0.5,1.6-0.8,0.8-1.3c-2.3-1.4-4.6-2.8-6.8-4.3
				C321.6,253.8,320.8,255.1,321.7,255.6L321.7,255.6z"/>
		</g>
	</g>
	<g>
		<g>
			<path class="st4" d="M334.7,252.6c2.2,1.2,4.5,2.4,6.7,3.5c0.9,0.5,1.6-0.8,0.8-1.3c-2.2-1.2-4.5-2.4-6.7-3.5
				C334.6,250.8,333.8,252.1,334.7,252.6L334.7,252.6z"/>
		</g>
	</g>
	<g>
		<g>
			<path class="st4" d="M344.6,249.6c3.4,1.6,6.7,3.2,10.1,4.9c0.9,0.4,1.6-0.9,0.8-1.3c-3.4-1.6-6.7-3.2-10.1-4.9
				C344.5,247.9,343.8,249.2,344.6,249.6L344.6,249.6z"/>
		</g>
	</g>
	<g>
		<g>
			<path class="st4" d="M354.9,246.2c4.1,2.3,8.4,3.7,13.1,4c1,0.1,1-1.4,0-1.5c-4.4-0.3-8.5-1.6-12.4-3.8
				C354.8,244.5,354,245.8,354.9,246.2L354.9,246.2z"/>
		</g>
	</g>
	<g>
		<g>
			<path class="st4" d="M363.8,242.6c2,0.7,4,1.4,6,2.1c0.9,0.3,1.3-1.1,0.4-1.4c-2-0.7-4-1.4-6-2.1
				C363.3,240.8,362.9,242.3,363.8,242.6L363.8,242.6z"/>
		</g>
	</g>
	<g>
		<g>
			<path class="st4" d="M372,240.7c1.7,0.1,3.2,0.8,4.4,1.9c0.7,0.6,1.8-0.4,1.1-1.1c-1.6-1.4-3.4-2.2-5.5-2.3
				C371,239.1,371,240.6,372,240.7L372,240.7z"/>
		</g>
	</g>
	<g>
		<g>
			<path class="st4" d="M378.6,235.6c0.7,0.3,1.3,0.7,2,1c0.9,0.4,1.6-0.9,0.8-1.3c-0.7-0.3-1.3-0.7-2-1
				C378.5,233.9,377.8,235.2,378.6,235.6L378.6,235.6z"/>
		</g>
	</g>
</g>
<g id="Layer_7">
	<g>
		<g>
			<path class="st5" d="M374.1,367.1c49.9-31.3,99.8-62.6,149.7-94c3.3-2,0.3-7.2-3-5.2c-49.9,31.3-99.8,62.6-149.7,94
				C367.9,363.9,370.9,369.1,374.1,367.1L374.1,367.1z"/>
		</g>
	</g>
	<g>
		<g>
			<path class="st5" d="M82.2,583.7c30.9-21.2,61.8-42.4,92.7-63.6c3.2-2.2,0.2-7.4-3-5.2c-30.9,21.2-61.8,42.4-92.7,63.6
				C76,580.7,79,585.9,82.2,583.7L82.2,583.7z"/>
		</g>
	</g>
	<g>
		<g>
			<path class="st5" d="M501.3,250.9c-0.6,11.1-2.2,22.1-4.7,33c-0.4,1.6,0.5,3.2,2.1,3.7c9.8,2.9,19.6,5.8,29.4,8.8
				c3.7,1.1,5.3-4.7,1.6-5.8c-9.8-2.9-19.6-5.8-29.4-8.8c0.7,1.2,1.4,2.5,2.1,3.7c2.7-11.4,4.3-22.9,5-34.6
				C507.5,247.1,501.5,247.1,501.3,250.9L501.3,250.9z"/>
		</g>
	</g>
	<g>
		<g>
			<path class="st5" d="M483.7,258c-0.5,8.6-1,17.2-1.4,25.8c-0.4,6.4-1.8,11.9,4,15.9c9.5,6.6,23.6,4.5,31.5,13.5
				c2.6,2.9,6.8-1.3,4.2-4.2c-6.8-7.7-17.2-8.2-26.3-11.3c-2.6-0.9-5.7-2-7.1-4.5c-1.6-3-0.4-8-0.2-11.3c0.4-8,0.9-15.9,1.3-23.9
				C489.9,254.1,483.9,254.2,483.7,258L483.7,258z"/>
		</g>
	</g>
	<g>
		<g>
			<path class="st5" d="M464.5,267c-0.2,8.2-0.3,16.4-0.5,24.6c-0.1,6-1.9,14,3.3,18.4c4.9,4.2,12.6,6.6,18.6,8.7
				c7.3,2.6,14.9,4.3,22.5,5.4c3.8,0.5,5.4-5.2,1.6-5.8c-12.1-1.7-26.2-4.8-36.5-11.5c-4-2.6-3.6-5.4-3.5-9.6
				c0.1-3.1,0.1-6.3,0.2-9.4c0.1-6.9,0.3-13.9,0.4-20.8C470.6,263.1,464.6,263.1,464.5,267L464.5,267z"/>
		</g>
	</g>
	<g>
		<g>
			<path class="st5" d="M82.3,580.4c6.9-14.1,14.8-27.7,23.5-40.7c2.2-3.2-3-6.2-5.2-3c-8.7,13-16.6,26.6-23.5,40.7
				C75.5,580.8,80.6,583.9,82.3,580.4L82.3,580.4z"/>
		</g>
	</g>
	<g>
		<g>
			<path class="st5" d="M81.3,584.4c11.7,3.2,23.3,6.9,34.7,11c3.6,1.3,5.2-4.5,1.6-5.8c-11.4-4.1-23-7.8-34.7-11
				C79.2,577.6,77.6,583.4,81.3,584.4L81.3,584.4z"/>
		</g>
	</g>
</g>
</svg>
